<?xml version="1.0" encoding="UTF-8" standalone="no"?>
<!DOCTYPE svg PUBLIC "-//W3C//DTD SVG 1.1//EN"
 "http://www.w3.org/Graphics/SVG/1.1/DTD/svg11.dtd">
<!-- Generated by graphviz version 5.0.0 (20220707.1540)
 -->
<!-- Title: dependencies Pages: 1 -->
<svg width="701pt" height="247pt"
 viewBox="0.00 0.00 701.00 246.80" xmlns="http://www.w3.org/2000/svg" xmlns:xlink="http://www.w3.org/1999/xlink">
<g id="graph0" class="graph" transform="scale(1 1) rotate(0) translate(4 242.8)">
<title>dependencies</title>
<polygon fill="white" stroke="transparent" points="-4,4 -4,-242.8 697,-242.8 697,4 -4,4"/>
<text text-anchor="middle" x="346.5" y="-8.2" font-family="sans-serif" font-size="14.00">dependencies</text>
<g id="clust1" class="cluster">
<title>cluster_PlayerModule</title>
<polygon fill="none" stroke="black" stroke-dasharray="1,5" points="8,-32.8 8,-230.8 685,-230.8 685,-32.8 8,-32.8"/>
</g>
<g id="clust2" class="cluster">
<title>cluster_PlayerModule_declarations</title>
<polygon fill="none" stroke="black" points="16,-40.8 16,-92.8 677,-92.8 677,-40.8 16,-40.8"/>
</g>
<g id="clust8" class="cluster">
<title>cluster_PlayerModule_exports</title>
<polygon fill="none" stroke="black" points="290,-170.8 290,-222.8 426,-222.8 426,-170.8 290,-170.8"/>
</g>
<!-- OpSequencerComponent -->
<g id="node1" class="node">
<title>OpSequencerComponent</title>
<polygon fill="#ffffb3" stroke="black" points="669.25,-84.8 512.75,-84.8 512.75,-48.8 669.25,-48.8 669.25,-84.8"/>
<text text-anchor="middle" x="591" y="-62.6" font-family="Times,serif" font-size="14.00">OpSequencerComponent</text>
</g>
<!-- PlayerModule -->
<g id="node5" class="node">
<title>PlayerModule</title>
<polygon fill="#8dd3c7" stroke="black" points="405.82,-149.8 402.82,-153.8 381.82,-153.8 378.82,-149.8 310.18,-149.8 310.18,-113.8 405.82,-113.8 405.82,-149.8"/>
<text text-anchor="middle" x="358" y="-127.6" font-family="Times,serif" font-size="14.00">PlayerModule</text>
</g>
<!-- OpSequencerComponent&#45;&gt;PlayerModule -->
<g id="edge1" class="edge">
<title>OpSequencerComponent&#45;&gt;PlayerModule</title>
<path fill="none" stroke="black" d="M591,-84.91C591,-104.14 591,-131.8 591,-131.8 591,-131.8 415.71,-131.8 415.71,-131.8"/>
<polygon fill="black" stroke="black" points="415.71,-128.3 405.71,-131.8 415.71,-135.3 415.71,-128.3"/>
</g>
<!-- PlayerComponent -->
<g id="node2" class="node">
<title>PlayerComponent</title>
<polygon fill="#ffffb3" stroke="black" points="494.6,-84.8 377.4,-84.8 377.4,-48.8 494.6,-48.8 494.6,-84.8"/>
<text text-anchor="middle" x="436" y="-62.6" font-family="Times,serif" font-size="14.00">PlayerComponent</text>
</g>
<!-- PlayerComponent&#45;&gt;PlayerModule -->
<g id="edge2" class="edge">
<title>PlayerComponent&#45;&gt;PlayerModule</title>
<path fill="none" stroke="black" d="M391.56,-84.91C391.56,-84.91 391.56,-103.79 391.56,-103.79"/>
<polygon fill="black" stroke="black" points="388.06,-103.79 391.56,-113.79 395.06,-103.79 388.06,-103.79"/>
</g>
<!-- VirtualPedalsComponent -->
<g id="node3" class="node">
<title>VirtualPedalsComponent</title>
<polygon fill="#ffffb3" stroke="black" points="359.54,-84.8 202.46,-84.8 202.46,-48.8 359.54,-48.8 359.54,-84.8"/>
<text text-anchor="middle" x="281" y="-62.6" font-family="Times,serif" font-size="14.00">VirtualPedalsComponent</text>
</g>
<!-- VirtualPedalsComponent&#45;&gt;PlayerModule -->
<g id="edge3" class="edge">
<title>VirtualPedalsComponent&#45;&gt;PlayerModule</title>
<path fill="none" stroke="black" d="M335.06,-84.91C335.06,-84.91 335.06,-103.79 335.06,-103.79"/>
<polygon fill="black" stroke="black" points="331.56,-103.79 335.06,-113.79 338.56,-103.79 331.56,-103.79"/>
</g>
<!-- WeavingStateComponent -->
<g id="node4" class="node">
<title>WeavingStateComponent</title>
<polygon fill="#ffffb3" stroke="black" points="183.86,-84.8 24.14,-84.8 24.14,-48.8 183.86,-48.8 183.86,-84.8"/>
<text text-anchor="middle" x="104" y="-62.6" font-family="Times,serif" font-size="14.00">WeavingStateComponent</text>
</g>
<!-- WeavingStateComponent&#45;&gt;PlayerModule -->
<g id="edge4" class="edge">
<title>WeavingStateComponent&#45;&gt;PlayerModule</title>
<path fill="none" stroke="black" d="M104,-84.91C104,-104.14 104,-131.8 104,-131.8 104,-131.8 300.22,-131.8 300.22,-131.8"/>
<polygon fill="black" stroke="black" points="300.22,-135.3 310.22,-131.8 300.22,-128.3 300.22,-135.3"/>
</g>
<!-- PlayerComponent  -->
<g id="node6" class="node">
<title>PlayerComponent </title>
<polygon fill="#fb8072" stroke="black" points="418.1,-214.8 297.9,-214.8 297.9,-178.8 418.1,-178.8 418.1,-214.8"/>
<text text-anchor="middle" x="358" y="-192.6" font-family="Times,serif" font-size="14.00">PlayerComponent </text>
</g>
<!-- PlayerModule&#45;&gt;PlayerComponent  -->
<g id="edge5" class="edge">
<title>PlayerModule&#45;&gt;PlayerComponent </title>
<path fill="none" stroke="black" stroke-dasharray="5,2" d="M358,-149.91C358,-149.91 358,-168.79 358,-168.79"/>
<polygon fill="black" stroke="black" points="354.5,-168.79 358,-178.79 361.5,-168.79 354.5,-168.79"/>
</g>
</g>
</svg>
