<?xml version="1.0" encoding="UTF-8" standalone="no"?>
<!DOCTYPE svg PUBLIC "-//W3C//DTD SVG 1.1//EN"
 "http://www.w3.org/Graphics/SVG/1.1/DTD/svg11.dtd">
<!-- Generated by graphviz version 5.0.0 (20220707.1540)
 -->
<!-- Title: dependencies Pages: 1 -->
<svg width="2001pt" height="247pt"
 viewBox="0.00 0.00 2001.00 246.80" xmlns="http://www.w3.org/2000/svg" xmlns:xlink="http://www.w3.org/1999/xlink">
<g id="graph0" class="graph" transform="scale(1 1) rotate(0) translate(4 242.8)">
<title>dependencies</title>
<polygon fill="white" stroke="transparent" points="-4,4 -4,-242.8 1997,-242.8 1997,4 -4,4"/>
<text text-anchor="middle" x="996.5" y="-8.2" font-family="sans-serif" font-size="14.00">dependencies</text>
<g id="clust1" class="cluster">
<title>cluster_PlayerModule</title>
<polygon fill="none" stroke="black" stroke-dasharray="1,5" points="8,-32.8 8,-230.8 1985,-230.8 1985,-32.8 8,-32.8"/>
</g>
<g id="clust2" class="cluster">
<title>cluster_PlayerModule_declarations</title>
<polygon fill="none" stroke="black" points="376,-40.8 376,-92.8 1977,-92.8 1977,-40.8 376,-40.8"/>
</g>
<g id="clust16" class="cluster">
<title>cluster_PlayerModule_providers</title>
<polygon fill="none" stroke="black" points="16,-40.8 16,-92.8 368,-92.8 368,-40.8 16,-40.8"/>
</g>
<g id="clust14" class="cluster">
<title>cluster_PlayerModule_exports</title>
<polygon fill="none" stroke="black" points="984,-170.8 984,-222.8 1120,-222.8 1120,-170.8 984,-170.8"/>
</g>
<!-- ChainOpMenuComponent -->
<g id="node1" class="node">
<title>ChainOpMenuComponent</title>
<polygon fill="#ffffb3" stroke="black" points="1969.05,-84.8 1804.95,-84.8 1804.95,-48.8 1969.05,-48.8 1969.05,-84.8"/>
<text text-anchor="middle" x="1887" y="-62.6" font-family="Times,serif" font-size="14.00">ChainOpMenuComponent</text>
</g>
<!-- PlayerModule -->
<g id="node11" class="node">
<title>PlayerModule</title>
<polygon fill="#8dd3c7" stroke="black" points="1099.82,-149.8 1096.82,-153.8 1075.82,-153.8 1072.82,-149.8 1004.18,-149.8 1004.18,-113.8 1099.82,-113.8 1099.82,-149.8"/>
<text text-anchor="middle" x="1052" y="-127.6" font-family="Times,serif" font-size="14.00">PlayerModule</text>
</g>
<!-- ChainOpMenuComponent&#45;&gt;PlayerModule -->
<g id="edge1" class="edge">
<title>ChainOpMenuComponent&#45;&gt;PlayerModule</title>
<path fill="none" stroke="black" d="M1887,-85.05C1887,-107.82 1887,-143.8 1887,-143.8 1887,-143.8 1109.89,-143.8 1109.89,-143.8"/>
<polygon fill="black" stroke="black" points="1109.89,-140.3 1099.89,-143.8 1109.89,-147.3 1109.89,-140.3"/>
</g>
<!-- OpButtonComponent -->
<g id="node2" class="node">
<title>OpButtonComponent</title>
<polygon fill="#ffffb3" stroke="black" points="1786.06,-84.8 1649.94,-84.8 1649.94,-48.8 1786.06,-48.8 1786.06,-84.8"/>
<text text-anchor="middle" x="1718" y="-62.6" font-family="Times,serif" font-size="14.00">OpButtonComponent</text>
</g>
<!-- OpButtonComponent&#45;&gt;PlayerModule -->
<g id="edge2" class="edge">
<title>OpButtonComponent&#45;&gt;PlayerModule</title>
<path fill="none" stroke="black" d="M1718,-85.08C1718,-106.12 1718,-137.8 1718,-137.8 1718,-137.8 1109.9,-137.8 1109.9,-137.8"/>
<polygon fill="black" stroke="black" points="1109.9,-134.3 1099.9,-137.8 1109.9,-141.3 1109.9,-134.3"/>
</g>
<!-- OpSequencerComponent -->
<g id="node3" class="node">
<title>OpSequencerComponent</title>
<polygon fill="#ffffb3" stroke="black" points="1631.25,-84.8 1474.75,-84.8 1474.75,-48.8 1631.25,-48.8 1631.25,-84.8"/>
<text text-anchor="middle" x="1553" y="-62.6" font-family="Times,serif" font-size="14.00">OpSequencerComponent</text>
</g>
<!-- OpSequencerComponent&#45;&gt;PlayerModule -->
<g id="edge3" class="edge">
<title>OpSequencerComponent&#45;&gt;PlayerModule</title>
<path fill="none" stroke="black" d="M1553,-84.91C1553,-104.14 1553,-131.8 1553,-131.8 1553,-131.8 1110.04,-131.8 1110.04,-131.8"/>
<polygon fill="black" stroke="black" points="1110.04,-128.3 1100.04,-131.8 1110.04,-135.3 1110.04,-128.3"/>
</g>
<!-- PedalComponent -->
<g id="node4" class="node">
<title>PedalComponent</title>
<polygon fill="#ffffb3" stroke="black" points="1456.44,-84.8 1343.56,-84.8 1343.56,-48.8 1456.44,-48.8 1456.44,-84.8"/>
<text text-anchor="middle" x="1400" y="-62.6" font-family="Times,serif" font-size="14.00">PedalComponent</text>
</g>
<!-- PedalComponent&#45;&gt;PlayerModule -->
<g id="edge4" class="edge">
<title>PedalComponent&#45;&gt;PlayerModule</title>
<path fill="none" stroke="black" d="M1400,-84.82C1400,-102.17 1400,-125.8 1400,-125.8 1400,-125.8 1110.02,-125.8 1110.02,-125.8"/>
<polygon fill="black" stroke="black" points="1110.02,-122.3 1100.02,-125.8 1110.02,-129.3 1110.02,-122.3"/>
</g>
<!-- PedalsComponent -->
<g id="node5" class="node">
<title>PedalsComponent</title>
<polygon fill="#ffffb3" stroke="black" points="1325.88,-84.8 1208.12,-84.8 1208.12,-48.8 1325.88,-48.8 1325.88,-84.8"/>
<text text-anchor="middle" x="1267" y="-62.6" font-family="Times,serif" font-size="14.00">PedalsComponent</text>
</g>
<!-- PedalsComponent&#45;&gt;PlayerModule -->
<g id="edge5" class="edge">
<title>PedalsComponent&#45;&gt;PlayerModule</title>
<path fill="none" stroke="black" d="M1267,-85.04C1267,-100.37 1267,-119.8 1267,-119.8 1267,-119.8 1109.72,-119.8 1109.72,-119.8"/>
<polygon fill="black" stroke="black" points="1109.72,-116.3 1099.72,-119.8 1109.72,-123.3 1109.72,-116.3"/>
</g>
<!-- PlaybackComponent -->
<g id="node6" class="node">
<title>PlaybackComponent</title>
<polygon fill="#ffffb3" stroke="black" points="1190.15,-84.8 1057.85,-84.8 1057.85,-48.8 1190.15,-48.8 1190.15,-84.8"/>
<text text-anchor="middle" x="1124" y="-62.6" font-family="Times,serif" font-size="14.00">PlaybackComponent</text>
</g>
<!-- PlaybackComponent&#45;&gt;PlayerModule -->
<g id="edge6" class="edge">
<title>PlaybackComponent&#45;&gt;PlayerModule</title>
<path fill="none" stroke="black" d="M1078.67,-84.91C1078.67,-84.91 1078.67,-103.79 1078.67,-103.79"/>
<polygon fill="black" stroke="black" points="1075.17,-103.79 1078.67,-113.79 1082.17,-103.79 1075.17,-103.79"/>
</g>
<!-- PlayerComponent -->
<g id="node7" class="node">
<title>PlayerComponent</title>
<polygon fill="#ffffb3" stroke="black" points="1039.6,-84.8 922.4,-84.8 922.4,-48.8 1039.6,-48.8 1039.6,-84.8"/>
<text text-anchor="middle" x="981" y="-62.6" font-family="Times,serif" font-size="14.00">PlayerComponent</text>
</g>
<!-- PlayerComponent&#45;&gt;PlayerModule -->
<g id="edge7" class="edge">
<title>PlayerComponent&#45;&gt;PlayerModule</title>
<path fill="none" stroke="black" d="M1021.94,-84.91C1021.94,-84.91 1021.94,-103.79 1021.94,-103.79"/>
<polygon fill="black" stroke="black" points="1018.44,-103.79 1021.94,-113.79 1025.44,-103.79 1018.44,-103.79"/>
</g>
<!-- SingleOpMenuComponent -->
<g id="node8" class="node">
<title>SingleOpMenuComponent</title>
<polygon fill="#ffffb3" stroke="black" points="904.38,-84.8 737.62,-84.8 737.62,-48.8 904.38,-48.8 904.38,-84.8"/>
<text text-anchor="middle" x="821" y="-62.6" font-family="Times,serif" font-size="14.00">SingleOpMenuComponent</text>
</g>
<!-- SingleOpMenuComponent&#45;&gt;PlayerModule -->
<g id="edge8" class="edge">
<title>SingleOpMenuComponent&#45;&gt;PlayerModule</title>
<path fill="none" stroke="black" d="M821,-85.04C821,-100.37 821,-119.8 821,-119.8 821,-119.8 994.14,-119.8 994.14,-119.8"/>
<polygon fill="black" stroke="black" points="994.14,-123.3 1004.14,-119.8 994.14,-116.3 994.14,-123.3"/>
</g>
<!-- VirtualPedalsComponent -->
<g id="node9" class="node">
<title>VirtualPedalsComponent</title>
<polygon fill="#ffffb3" stroke="black" points="719.54,-84.8 562.46,-84.8 562.46,-48.8 719.54,-48.8 719.54,-84.8"/>
<text text-anchor="middle" x="641" y="-62.6" font-family="Times,serif" font-size="14.00">VirtualPedalsComponent</text>
</g>
<!-- VirtualPedalsComponent&#45;&gt;PlayerModule -->
<g id="edge9" class="edge">
<title>VirtualPedalsComponent&#45;&gt;PlayerModule</title>
<path fill="none" stroke="black" d="M641,-84.82C641,-102.17 641,-125.8 641,-125.8 641,-125.8 994.05,-125.8 994.05,-125.8"/>
<polygon fill="black" stroke="black" points="994.05,-129.3 1004.05,-125.8 994.05,-122.3 994.05,-129.3"/>
</g>
<!-- WeavingStateComponent -->
<g id="node10" class="node">
<title>WeavingStateComponent</title>
<polygon fill="#ffffb3" stroke="black" points="543.86,-84.8 384.14,-84.8 384.14,-48.8 543.86,-48.8 543.86,-84.8"/>
<text text-anchor="middle" x="464" y="-62.6" font-family="Times,serif" font-size="14.00">WeavingStateComponent</text>
</g>
<!-- WeavingStateComponent&#45;&gt;PlayerModule -->
<g id="edge10" class="edge">
<title>WeavingStateComponent&#45;&gt;PlayerModule</title>
<path fill="none" stroke="black" d="M464,-84.91C464,-104.14 464,-131.8 464,-131.8 464,-131.8 993.88,-131.8 993.88,-131.8"/>
<polygon fill="black" stroke="black" points="993.88,-135.3 1003.88,-131.8 993.88,-128.3 993.88,-135.3"/>
</g>
<!-- PlayerComponent  -->
<g id="node12" class="node">
<title>PlayerComponent </title>
<polygon fill="#fb8072" stroke="black" points="1112.1,-214.8 991.9,-214.8 991.9,-178.8 1112.1,-178.8 1112.1,-214.8"/>
<text text-anchor="middle" x="1052" y="-192.6" font-family="Times,serif" font-size="14.00">PlayerComponent </text>
</g>
<!-- PlayerModule&#45;&gt;PlayerComponent  -->
<g id="edge11" class="edge">
<title>PlayerModule&#45;&gt;PlayerComponent </title>
<path fill="none" stroke="black" stroke-dasharray="5,2" d="M1052,-149.91C1052,-149.91 1052,-168.79 1052,-168.79"/>
<polygon fill="black" stroke="black" points="1048.5,-168.79 1052,-178.79 1055.5,-168.79 1048.5,-168.79"/>
</g>
<!-- MappingsService -->
<g id="node13" class="node">
<title>MappingsService</title>
<ellipse fill="#fdb462" stroke="black" cx="281" cy="-66.8" rx="78.74" ry="18"/>
<text text-anchor="middle" x="281" y="-62.6" font-family="Times,serif" font-size="14.00">MappingsService</text>
</g>
<!-- MappingsService&#45;&gt;PlayerModule -->
<g id="edge12" class="edge">
<title>MappingsService&#45;&gt;PlayerModule</title>
<path fill="none" stroke="black" d="M281,-85.08C281,-106.12 281,-137.8 281,-137.8 281,-137.8 994.06,-137.8 994.06,-137.8"/>
<polygon fill="black" stroke="black" points="994.06,-141.3 1004.06,-137.8 994.06,-134.3 994.06,-141.3"/>
</g>
<!-- SequencerService -->
<g id="node14" class="node">
<title>SequencerService</title>
<ellipse fill="#fdb462" stroke="black" cx="104" cy="-66.8" rx="80.42" ry="18"/>
<text text-anchor="middle" x="104" y="-62.6" font-family="Times,serif" font-size="14.00">SequencerService</text>
</g>
<!-- SequencerService&#45;&gt;PlayerModule -->
<g id="edge13" class="edge">
<title>SequencerService&#45;&gt;PlayerModule</title>
<path fill="none" stroke="black" d="M104,-85.05C104,-107.82 104,-143.8 104,-143.8 104,-143.8 994.34,-143.8 994.34,-143.8"/>
<polygon fill="black" stroke="black" points="994.34,-147.3 1004.34,-143.8 994.34,-140.3 994.34,-147.3"/>
</g>
</g>
</svg>
