<?xml version="1.0" encoding="UTF-8" standalone="no"?>
<!DOCTYPE svg PUBLIC "-//W3C//DTD SVG 1.1//EN"
 "http://www.w3.org/Graphics/SVG/1.1/DTD/svg11.dtd">
<!-- Generated by graphviz version 2.47.0 (20210316.0004)
 -->
<!-- Title: dependencies Pages: 1 -->
<svg width="7493pt" height="211pt"
 viewBox="0.00 0.00 7493.00 211.00" xmlns="http://www.w3.org/2000/svg" xmlns:xlink="http://www.w3.org/1999/xlink">
<g id="graph0" class="graph" transform="scale(1 1) rotate(0) translate(4 207)">
<title>dependencies</title>
<polygon fill="white" stroke="transparent" points="-4,4 -4,-207 7489,-207 7489,4 -4,4"/>
<text text-anchor="start" x="3721.51" y="-42.4" font-family="sans-serif" font-weight="bold" font-size="14.00">Legend</text>
<polygon fill="#ffffb3" stroke="transparent" points="3508.5,-10 3508.5,-30 3528.5,-30 3528.5,-10 3508.5,-10"/>
<text text-anchor="start" x="3532.13" y="-15.4" font-family="sans-serif" font-size="14.00"> &#160;Declarations</text>
<polygon fill="#8dd3c7" stroke="transparent" points="3621.5,-10 3621.5,-30 3641.5,-30 3641.5,-10 3621.5,-10"/>
<text text-anchor="start" x="3645.23" y="-15.4" font-family="sans-serif" font-size="14.00"> &#160;Module</text>
<polygon fill="#80b1d3" stroke="transparent" points="3707.5,-10 3707.5,-30 3727.5,-30 3727.5,-10 3707.5,-10"/>
<text text-anchor="start" x="3731.28" y="-15.4" font-family="sans-serif" font-size="14.00"> &#160;Bootstrap</text>
<polygon fill="#fdb462" stroke="transparent" points="3804.5,-10 3804.5,-30 3824.5,-30 3824.5,-10 3804.5,-10"/>
<text text-anchor="start" x="3828.17" y="-15.4" font-family="sans-serif" font-size="14.00"> &#160;Providers</text>
<polygon fill="#fb8072" stroke="transparent" points="3900.5,-10 3900.5,-30 3920.5,-30 3920.5,-10 3900.5,-10"/>
<text text-anchor="start" x="3924.23" y="-15.4" font-family="sans-serif" font-size="14.00"> &#160;Exports</text>
<g id="clust1" class="cluster">
<title>cluster_MixerModule</title>
<polygon fill="none" stroke="black" stroke-dasharray="1,5" points="8,-70 8,-195 7477,-195 7477,-70 8,-70"/>
</g>
<g id="clust2" class="cluster">
<title>cluster_MixerModule_declarations</title>
<polygon fill="none" stroke="black" points="4245,-78 4245,-130 7469,-130 7469,-78 4245,-78"/>
</g>
<g id="clust27" class="cluster">
<title>cluster_MixerModule_imports</title>
<polygon fill="none" stroke="black" points="16,-78 16,-130 4237,-130 4237,-78 16,-78"/>
</g>
<!-- TopbarComponent -->
<g id="node1" class="node">
<title>TopbarComponent</title>
<polygon fill="#ffffb3" stroke="black" points="7460.76,-122 7339.24,-122 7339.24,-86 7460.76,-86 7460.76,-122"/>
<text text-anchor="middle" x="7400" y="-99.8" font-family="Times,serif" font-size="14.00">TopbarComponent</text>
</g>
<!-- MixerModule -->
<g id="node25" class="node">
<title>MixerModule</title>
<polygon fill="#8dd3c7" stroke="black" points="3924.76,-187 3921.76,-191 3900.76,-191 3897.76,-187 3831.24,-187 3831.24,-151 3924.76,-151 3924.76,-187"/>
<text text-anchor="middle" x="3878" y="-164.8" font-family="Times,serif" font-size="14.00">MixerModule</text>
</g>
<!-- TopbarComponent&#45;&gt;MixerModule -->
<g id="edge1" class="edge">
<title>TopbarComponent&#45;&gt;MixerModule</title>
<path fill="none" stroke="black" d="M7400,-122.2C7400,-146.36 7400,-186 7400,-186 7400,-186 3934.8,-186 3934.8,-186"/>
<polygon fill="black" stroke="black" points="3934.8,-182.5 3924.8,-186 3934.8,-189.5 3934.8,-182.5"/>
</g>
<!-- DesignComponent -->
<g id="node2" class="node">
<title>DesignComponent</title>
<polygon fill="#ffffb3" stroke="black" points="7321.49,-122 7200.51,-122 7200.51,-86 7321.49,-86 7321.49,-122"/>
<text text-anchor="middle" x="7261" y="-99.8" font-family="Times,serif" font-size="14.00">DesignComponent</text>
</g>
<!-- DesignComponent&#45;&gt;MixerModule -->
<g id="edge2" class="edge">
<title>DesignComponent&#45;&gt;MixerModule</title>
<path fill="none" stroke="black" d="M7261,-122.38C7261,-146.28 7261,-185 7261,-185 7261,-185 3934.86,-185 3934.86,-185"/>
<polygon fill="black" stroke="black" points="3934.86,-181.5 3924.86,-185 3934.86,-188.5 3934.86,-181.5"/>
</g>
<!-- MixerComponent -->
<g id="node3" class="node">
<title>MixerComponent</title>
<polygon fill="#ffffb3" stroke="black" points="7182.54,-122 7067.46,-122 7067.46,-86 7182.54,-86 7182.54,-122"/>
<text text-anchor="middle" x="7125" y="-99.8" font-family="Times,serif" font-size="14.00">MixerComponent</text>
</g>
<!-- MixerComponent&#45;&gt;MixerModule -->
<g id="edge3" class="edge">
<title>MixerComponent&#45;&gt;MixerModule</title>
<path fill="none" stroke="black" d="M7125,-122.32C7125,-145.66 7125,-183 7125,-183 7125,-183 3934.84,-183 3934.84,-183"/>
<polygon fill="black" stroke="black" points="3934.84,-179.5 3924.84,-183 3934.84,-186.5 3934.84,-179.5"/>
</g>
<!-- PatternsComponent -->
<g id="node4" class="node">
<title>PatternsComponent</title>
<polygon fill="#ffffb3" stroke="black" points="7049.43,-122 6922.57,-122 6922.57,-86 7049.43,-86 7049.43,-122"/>
<text text-anchor="middle" x="6986" y="-99.8" font-family="Times,serif" font-size="14.00">PatternsComponent</text>
</g>
<!-- PatternsComponent&#45;&gt;MixerModule -->
<g id="edge4" class="edge">
<title>PatternsComponent&#45;&gt;MixerModule</title>
<path fill="none" stroke="black" d="M6986,-122.09C6986,-145.13 6986,-182 6986,-182 6986,-182 3934.96,-182 3934.96,-182"/>
<polygon fill="black" stroke="black" points="3934.96,-178.5 3924.96,-182 3934.96,-185.5 3934.96,-178.5"/>
</g>
<!-- ShuttlesModal -->
<g id="node5" class="node">
<title>ShuttlesModal</title>
<polygon fill="#ffffb3" stroke="black" points="6904.66,-122 6807.34,-122 6807.34,-86 6904.66,-86 6904.66,-122"/>
<text text-anchor="middle" x="6856" y="-99.8" font-family="Times,serif" font-size="14.00">ShuttlesModal</text>
</g>
<!-- ShuttlesModal&#45;&gt;MixerModule -->
<g id="edge5" class="edge">
<title>ShuttlesModal&#45;&gt;MixerModule</title>
<path fill="none" stroke="black" d="M6856,-122.25C6856,-145.02 6856,-181 6856,-181 6856,-181 3934.78,-181 3934.78,-181"/>
<polygon fill="black" stroke="black" points="3934.78,-177.5 3924.78,-181 3934.78,-184.5 3934.78,-177.5"/>
</g>
<!-- AboutModal -->
<g id="node6" class="node">
<title>AboutModal</title>
<polygon fill="#ffffb3" stroke="black" points="6788.55,-122 6701.45,-122 6701.45,-86 6788.55,-86 6788.55,-122"/>
<text text-anchor="middle" x="6745" y="-99.8" font-family="Times,serif" font-size="14.00">AboutModal</text>
</g>
<!-- AboutModal&#45;&gt;MixerModule -->
<g id="edge6" class="edge">
<title>AboutModal&#45;&gt;MixerModule</title>
<path fill="none" stroke="black" d="M6745,-122.16C6745,-144.35 6745,-179 6745,-179 6745,-179 3934.78,-179 3934.78,-179"/>
<polygon fill="black" stroke="black" points="3934.78,-175.5 3924.78,-179 3934.78,-182.5 3934.78,-175.5"/>
</g>
<!-- PatternModal -->
<g id="node7" class="node">
<title>PatternModal</title>
<polygon fill="#ffffb3" stroke="black" points="6683.2,-122 6590.8,-122 6590.8,-86 6683.2,-86 6683.2,-122"/>
<text text-anchor="middle" x="6637" y="-99.8" font-family="Times,serif" font-size="14.00">PatternModal</text>
</g>
<!-- PatternModal&#45;&gt;MixerModule -->
<g id="edge7" class="edge">
<title>PatternModal&#45;&gt;MixerModule</title>
<path fill="none" stroke="black" d="M6637,-122.29C6637,-144.21 6637,-178 6637,-178 6637,-178 3935.02,-178 3935.02,-178"/>
<polygon fill="black" stroke="black" points="3935.02,-174.5 3925.02,-178 3935.02,-181.5 3935.02,-174.5"/>
</g>
<!-- ConnectionModal -->
<g id="node8" class="node">
<title>ConnectionModal</title>
<polygon fill="#ffffb3" stroke="black" points="6572.6,-122 6455.4,-122 6455.4,-86 6572.6,-86 6572.6,-122"/>
<text text-anchor="middle" x="6514" y="-99.8" font-family="Times,serif" font-size="14.00">ConnectionModal</text>
</g>
<!-- ConnectionModal&#45;&gt;MixerModule -->
<g id="edge8" class="edge">
<title>ConnectionModal&#45;&gt;MixerModule</title>
<path fill="none" stroke="black" d="M6514,-122.04C6514,-143.66 6514,-177 6514,-177 6514,-177 3934.87,-177 3934.87,-177"/>
<polygon fill="black" stroke="black" points="3934.87,-173.5 3924.87,-177 3934.87,-180.5 3934.87,-173.5"/>
</g>
<!-- InitModal -->
<g id="node9" class="node">
<title>InitModal</title>
<polygon fill="#ffffb3" stroke="black" points="6436.99,-122 6365.01,-122 6365.01,-86 6436.99,-86 6436.99,-122"/>
<text text-anchor="middle" x="6401" y="-99.8" font-family="Times,serif" font-size="14.00">InitModal</text>
</g>
<!-- InitModal&#45;&gt;MixerModule -->
<g id="edge9" class="edge">
<title>InitModal&#45;&gt;MixerModule</title>
<path fill="none" stroke="black" d="M6401,-122.28C6401,-143.32 6401,-175 6401,-175 6401,-175 3934.77,-175 3934.77,-175"/>
<polygon fill="black" stroke="black" points="3934.77,-171.5 3924.77,-175 3934.77,-178.5 3934.77,-171.5"/>
</g>
<!-- LabelModal -->
<g id="node10" class="node">
<title>LabelModal</title>
<polygon fill="#ffffb3" stroke="black" points="6347.42,-122 6262.58,-122 6262.58,-86 6347.42,-86 6347.42,-122"/>
<text text-anchor="middle" x="6305" y="-99.8" font-family="Times,serif" font-size="14.00">LabelModal</text>
</g>
<!-- LabelModal&#45;&gt;MixerModule -->
<g id="edge10" class="edge">
<title>LabelModal&#45;&gt;MixerModule</title>
<path fill="none" stroke="black" d="M6305,-122.03C6305,-142.77 6305,-174 6305,-174 6305,-174 3934.85,-174 3934.85,-174"/>
<polygon fill="black" stroke="black" points="3934.85,-170.5 3924.85,-174 3934.85,-177.5 3934.85,-170.5"/>
</g>
<!-- MaterialModal -->
<g id="node11" class="node">
<title>MaterialModal</title>
<polygon fill="#ffffb3" stroke="black" points="6244.97,-122 6145.03,-122 6145.03,-86 6244.97,-86 6244.97,-122"/>
<text text-anchor="middle" x="6195" y="-99.8" font-family="Times,serif" font-size="14.00">MaterialModal</text>
</g>
<!-- MaterialModal&#45;&gt;MixerModule -->
<g id="edge11" class="edge">
<title>MaterialModal&#45;&gt;MixerModule</title>
<path fill="none" stroke="black" d="M6195,-122.13C6195,-142.57 6195,-173 6195,-173 6195,-173 3934.81,-173 3934.81,-173"/>
<polygon fill="black" stroke="black" points="3934.81,-169.5 3924.81,-173 3934.81,-176.5 3934.81,-169.5"/>
</g>
<!-- SystemsComponent -->
<g id="node12" class="node">
<title>SystemsComponent</title>
<polygon fill="#ffffb3" stroke="black" points="6127,-122 5999,-122 5999,-86 6127,-86 6127,-122"/>
<text text-anchor="middle" x="6063" y="-99.8" font-family="Times,serif" font-size="14.00">SystemsComponent</text>
</g>
<!-- SystemsComponent&#45;&gt;MixerModule -->
<g id="edge12" class="edge">
<title>SystemsComponent&#45;&gt;MixerModule</title>
<path fill="none" stroke="black" d="M6063,-122.31C6063,-142.15 6063,-171 6063,-171 6063,-171 3934.9,-171 3934.9,-171"/>
<polygon fill="black" stroke="black" points="3934.9,-167.5 3924.9,-171 3934.9,-174.5 3934.9,-167.5"/>
</g>
<!-- LoomComponent -->
<g id="node13" class="node">
<title>LoomComponent</title>
<polygon fill="#ffffb3" stroke="black" points="5981.28,-122 5866.72,-122 5866.72,-86 5981.28,-86 5981.28,-122"/>
<text text-anchor="middle" x="5924" y="-99.8" font-family="Times,serif" font-size="14.00">LoomComponent</text>
</g>
<!-- LoomComponent&#45;&gt;MixerModule -->
<g id="edge13" class="edge">
<title>LoomComponent&#45;&gt;MixerModule</title>
<path fill="none" stroke="black" d="M5924,-122.03C5924,-141.58 5924,-170 5924,-170 5924,-170 3935.07,-170 3935.07,-170"/>
<polygon fill="black" stroke="black" points="3935.07,-166.5 3925.07,-170 3935.07,-173.5 3935.07,-166.5"/>
</g>
<!-- MaterialsComponent -->
<g id="node14" class="node">
<title>MaterialsComponent</title>
<polygon fill="#ffffb3" stroke="black" points="5849.2,-122 5714.8,-122 5714.8,-86 5849.2,-86 5849.2,-122"/>
<text text-anchor="middle" x="5782" y="-99.8" font-family="Times,serif" font-size="14.00">MaterialsComponent</text>
</g>
<!-- MaterialsComponent&#45;&gt;MixerModule -->
<g id="edge14" class="edge">
<title>MaterialsComponent&#45;&gt;MixerModule</title>
<path fill="none" stroke="black" d="M5782,-122.11C5782,-141.34 5782,-169 5782,-169 5782,-169 3935.07,-169 3935.07,-169"/>
<polygon fill="black" stroke="black" points="3935.07,-165.5 3925.07,-169 3935.07,-172.5 3935.07,-165.5"/>
</g>
<!-- MasksComponent -->
<g id="node15" class="node">
<title>MasksComponent</title>
<polygon fill="#ffffb3" stroke="black" points="5696.88,-122 5579.12,-122 5579.12,-86 5696.88,-86 5696.88,-122"/>
<text text-anchor="middle" x="5638" y="-99.8" font-family="Times,serif" font-size="14.00">MasksComponent</text>
</g>
<!-- MasksComponent&#45;&gt;MixerModule -->
<g id="edge15" class="edge">
<title>MasksComponent&#45;&gt;MixerModule</title>
<path fill="none" stroke="black" d="M5638,-122.22C5638,-140.83 5638,-167 5638,-167 5638,-167 3935.08,-167 3935.08,-167"/>
<polygon fill="black" stroke="black" points="3935.08,-163.5 3925.08,-167 3935.08,-170.5 3935.08,-163.5"/>
</g>
<!-- SchematicComponent -->
<g id="node16" class="node">
<title>SchematicComponent</title>
<polygon fill="#ffffb3" stroke="black" points="5560.65,-122 5421.35,-122 5421.35,-86 5560.65,-86 5560.65,-122"/>
<text text-anchor="middle" x="5491" y="-99.8" font-family="Times,serif" font-size="14.00">SchematicComponent</text>
</g>
<!-- SchematicComponent&#45;&gt;MixerModule -->
<g id="edge16" class="edge">
<title>SchematicComponent&#45;&gt;MixerModule</title>
<path fill="none" stroke="black" d="M5491,-122.27C5491,-140.56 5491,-166 5491,-166 5491,-166 3934.97,-166 3934.97,-166"/>
<polygon fill="black" stroke="black" points="3934.97,-162.5 3924.97,-166 3934.97,-169.5 3934.97,-162.5"/>
</g>
<!-- ViewComponent -->
<g id="node17" class="node">
<title>ViewComponent</title>
<polygon fill="#ffffb3" stroke="black" points="5402.65,-122 5291.35,-122 5291.35,-86 5402.65,-86 5402.65,-122"/>
<text text-anchor="middle" x="5347" y="-99.8" font-family="Times,serif" font-size="14.00">ViewComponent</text>
</g>
<!-- ViewComponent&#45;&gt;MixerModule -->
<g id="edge17" class="edge">
<title>ViewComponent&#45;&gt;MixerModule</title>
<path fill="none" stroke="black" d="M5347,-122.3C5347,-140.27 5347,-165 5347,-165 5347,-165 3934.8,-165 3934.8,-165"/>
<polygon fill="black" stroke="black" points="3934.8,-161.5 3924.8,-165 3934.8,-168.5 3934.8,-161.5"/>
</g>
<!-- NotesComponent -->
<g id="node18" class="node">
<title>NotesComponent</title>
<polygon fill="#ffffb3" stroke="black" points="5272.99,-122 5159.01,-122 5159.01,-86 5272.99,-86 5272.99,-122"/>
<text text-anchor="middle" x="5216" y="-99.8" font-family="Times,serif" font-size="14.00">NotesComponent</text>
</g>
<!-- NotesComponent&#45;&gt;MixerModule -->
<g id="edge18" class="edge">
<title>NotesComponent&#45;&gt;MixerModule</title>
<path fill="none" stroke="black" d="M5216,-122.02C5216,-139.37 5216,-163 5216,-163 5216,-163 3934.84,-163 3934.84,-163"/>
<polygon fill="black" stroke="black" points="3934.84,-159.5 3924.84,-163 3934.84,-166.5 3934.84,-159.5"/>
</g>
<!-- SubdraftComponent -->
<g id="node19" class="node">
<title>SubdraftComponent</title>
<polygon fill="#ffffb3" stroke="black" points="5140.54,-122 5011.46,-122 5011.46,-86 5140.54,-86 5140.54,-122"/>
<text text-anchor="middle" x="5076" y="-99.8" font-family="Times,serif" font-size="14.00">SubdraftComponent</text>
</g>
<!-- SubdraftComponent&#45;&gt;MixerModule -->
<g id="edge19" class="edge">
<title>SubdraftComponent&#45;&gt;MixerModule</title>
<path fill="none" stroke="black" d="M5076,-122.03C5076,-139.06 5076,-162 5076,-162 5076,-162 3934.96,-162 3934.96,-162"/>
<polygon fill="black" stroke="black" points="3934.96,-158.5 3924.96,-162 3934.96,-165.5 3934.96,-158.5"/>
</g>
<!-- PaletteComponent -->
<g id="node20" class="node">
<title>PaletteComponent</title>
<polygon fill="#ffffb3" stroke="black" points="4993.93,-122 4874.07,-122 4874.07,-86 4993.93,-86 4993.93,-122"/>
<text text-anchor="middle" x="4934" y="-99.8" font-family="Times,serif" font-size="14.00">PaletteComponent</text>
</g>
<!-- PaletteComponent&#45;&gt;MixerModule -->
<g id="edge20" class="edge">
<title>PaletteComponent&#45;&gt;MixerModule</title>
<path fill="none" stroke="black" d="M4934,-122.04C4934,-138.73 4934,-161 4934,-161 4934,-161 3935.08,-161 3935.08,-161"/>
<polygon fill="black" stroke="black" points="3935.08,-157.5 3925.08,-161 3935.08,-164.5 3935.08,-157.5"/>
</g>
<!-- SnackbarComponent -->
<g id="node21" class="node">
<title>SnackbarComponent</title>
<polygon fill="#ffffb3" stroke="black" points="4856.92,-122 4723.08,-122 4723.08,-86 4856.92,-86 4856.92,-122"/>
<text text-anchor="middle" x="4790" y="-99.8" font-family="Times,serif" font-size="14.00">SnackbarComponent</text>
</g>
<!-- SnackbarComponent&#45;&gt;MixerModule -->
<g id="edge21" class="edge">
<title>SnackbarComponent&#45;&gt;MixerModule</title>
<path fill="none" stroke="black" d="M4790,-122.01C4790,-138.05 4790,-159 4790,-159 4790,-159 3934.8,-159 3934.8,-159"/>
<polygon fill="black" stroke="black" points="3934.8,-155.5 3924.8,-159 3934.8,-162.5 3934.8,-155.5"/>
</g>
<!-- SelectionComponent -->
<g id="node22" class="node">
<title>SelectionComponent</title>
<polygon fill="#ffffb3" stroke="black" points="4705.93,-122 4572.07,-122 4572.07,-86 4705.93,-86 4705.93,-122"/>
<text text-anchor="middle" x="4639" y="-99.8" font-family="Times,serif" font-size="14.00">SelectionComponent</text>
</g>
<!-- SelectionComponent&#45;&gt;MixerModule -->
<g id="edge22" class="edge">
<title>SelectionComponent&#45;&gt;MixerModule</title>
<path fill="none" stroke="black" d="M4639,-122.28C4639,-137.95 4639,-158 4639,-158 4639,-158 3935.03,-158 3935.03,-158"/>
<polygon fill="black" stroke="black" points="3935.03,-154.5 3925.03,-158 3935.03,-161.5 3935.03,-154.5"/>
</g>
<!-- OperationComponent -->
<g id="node23" class="node">
<title>OperationComponent</title>
<polygon fill="#ffffb3" stroke="black" points="4554.81,-122 4417.19,-122 4417.19,-86 4554.81,-86 4554.81,-122"/>
<text text-anchor="middle" x="4486" y="-99.8" font-family="Times,serif" font-size="14.00">OperationComponent</text>
</g>
<!-- OperationComponent&#45;&gt;MixerModule -->
<g id="edge23" class="edge">
<title>OperationComponent&#45;&gt;MixerModule</title>
<path fill="none" stroke="black" d="M4486,-122.24C4486,-137.57 4486,-157 4486,-157 4486,-157 3934.95,-157 3934.95,-157"/>
<polygon fill="black" stroke="black" points="3934.95,-153.5 3924.95,-157 3934.95,-160.5 3934.95,-153.5"/>
</g>
<!-- ConnectionComponent -->
<g id="node24" class="node">
<title>ConnectionComponent</title>
<polygon fill="#ffffb3" stroke="black" points="4398.88,-122 4253.12,-122 4253.12,-86 4398.88,-86 4398.88,-122"/>
<text text-anchor="middle" x="4326" y="-99.8" font-family="Times,serif" font-size="14.00">ConnectionComponent</text>
</g>
<!-- ConnectionComponent&#45;&gt;MixerModule -->
<g id="edge24" class="edge">
<title>ConnectionComponent&#45;&gt;MixerModule</title>
<path fill="none" stroke="black" d="M4326,-122.12C4326,-136.78 4326,-155 4326,-155 4326,-155 3935.1,-155 3935.1,-155"/>
<polygon fill="black" stroke="black" points="3935.1,-151.5 3925.1,-155 3935.1,-158.5 3935.1,-151.5"/>
</g>
<!-- CommonModule -->
<g id="node26" class="node">
<title>CommonModule</title>
<polygon fill="#8dd3c7" stroke="black" points="4228.67,-122 4225.67,-126 4204.67,-126 4201.67,-122 4117.33,-122 4117.33,-86 4228.67,-86 4228.67,-122"/>
<text text-anchor="middle" x="4173" y="-99.8" font-family="Times,serif" font-size="14.00">CommonModule</text>
</g>
<!-- CommonModule&#45;&gt;MixerModule -->
<g id="edge25" class="edge">
<title>CommonModule&#45;&gt;MixerModule</title>
<path fill="none" stroke="black" d="M4173,-122.05C4173,-136.37 4173,-154 4173,-154 4173,-154 3935.07,-154 3935.07,-154"/>
<polygon fill="black" stroke="black" points="3935.07,-150.5 3925.07,-154 3935.07,-157.5 3935.07,-150.5"/>
</g>
<!-- CoreModule -->
<g id="node27" class="node">
<title>CoreModule</title>
<polygon fill="#8dd3c7" stroke="black" points="4099.26,-122 4096.26,-126 4075.26,-126 4072.26,-122 4012.74,-122 4012.74,-86 4099.26,-86 4099.26,-122"/>
<text text-anchor="middle" x="4056" y="-99.8" font-family="Times,serif" font-size="14.00">CoreModule</text>
</g>
<!-- CoreModule&#45;&gt;MixerModule -->
<g id="edge26" class="edge">
<title>CoreModule&#45;&gt;MixerModule</title>
<path fill="none" stroke="black" d="M4056,-122.25C4056,-136.18 4056,-153 4056,-153 4056,-153 3934.77,-153 3934.77,-153"/>
<polygon fill="black" stroke="black" points="3934.77,-149.5 3924.77,-153 3934.77,-156.5 3934.77,-149.5"/>
</g>
<!-- FormsModule -->
<g id="node28" class="node">
<title>FormsModule</title>
<polygon fill="#8dd3c7" stroke="black" points="3994.83,-122 3991.83,-126 3970.83,-126 3967.83,-122 3899.17,-122 3899.17,-86 3994.83,-86 3994.83,-122"/>
<text text-anchor="middle" x="3947" y="-99.8" font-family="Times,serif" font-size="14.00">FormsModule</text>
</g>
<!-- FormsModule&#45;&gt;MixerModule -->
<g id="edge27" class="edge">
<title>FormsModule&#45;&gt;MixerModule</title>
<path fill="none" stroke="black" d="M3912.11,-122.11C3912.11,-122.11 3912.11,-140.99 3912.11,-140.99"/>
<polygon fill="black" stroke="black" points="3908.61,-140.99 3912.11,-150.99 3915.61,-140.99 3908.61,-140.99"/>
</g>
<!-- ReactiveFormsModule -->
<g id="node29" class="node">
<title>ReactiveFormsModule</title>
<polygon fill="#8dd3c7" stroke="black" points="3881.3,-122 3878.3,-126 3857.3,-126 3854.3,-122 3736.7,-122 3736.7,-86 3881.3,-86 3881.3,-122"/>
<text text-anchor="middle" x="3809" y="-99.8" font-family="Times,serif" font-size="14.00">ReactiveFormsModule</text>
</g>
<!-- ReactiveFormsModule&#45;&gt;MixerModule -->
<g id="edge28" class="edge">
<title>ReactiveFormsModule&#45;&gt;MixerModule</title>
<path fill="none" stroke="black" d="M3856.14,-122.11C3856.14,-122.11 3856.14,-140.99 3856.14,-140.99"/>
<polygon fill="black" stroke="black" points="3852.64,-140.99 3856.14,-150.99 3859.64,-140.99 3852.64,-140.99"/>
</g>
<!-- MatAutocompleteModule -->
<g id="node30" class="node">
<title>MatAutocompleteModule</title>
<polygon fill="#8dd3c7" stroke="black" points="3718.91,-122 3715.91,-126 3694.91,-126 3691.91,-122 3557.09,-122 3557.09,-86 3718.91,-86 3718.91,-122"/>
<text text-anchor="middle" x="3638" y="-99.8" font-family="Times,serif" font-size="14.00">MatAutocompleteModule</text>
</g>
<!-- MatAutocompleteModule&#45;&gt;MixerModule -->
<g id="edge29" class="edge">
<title>MatAutocompleteModule&#45;&gt;MixerModule</title>
<path fill="none" stroke="black" d="M3638,-122.25C3638,-136.18 3638,-153 3638,-153 3638,-153 3821.16,-153 3821.16,-153"/>
<polygon fill="black" stroke="black" points="3821.16,-156.5 3831.16,-153 3821.16,-149.5 3821.16,-156.5"/>
</g>
<!-- MatButtonModule -->
<g id="node31" class="node">
<title>MatButtonModule</title>
<polygon fill="#8dd3c7" stroke="black" points="3539.22,-122 3536.22,-126 3515.22,-126 3512.22,-122 3418.78,-122 3418.78,-86 3539.22,-86 3539.22,-122"/>
<text text-anchor="middle" x="3479" y="-99.8" font-family="Times,serif" font-size="14.00">MatButtonModule</text>
</g>
<!-- MatButtonModule&#45;&gt;MixerModule -->
<g id="edge30" class="edge">
<title>MatButtonModule&#45;&gt;MixerModule</title>
<path fill="none" stroke="black" d="M3479,-122.05C3479,-136.37 3479,-154 3479,-154 3479,-154 3821.06,-154 3821.06,-154"/>
<polygon fill="black" stroke="black" points="3821.06,-157.5 3831.06,-154 3821.06,-150.5 3821.06,-157.5"/>
</g>
<!-- MatButtonToggleModule -->
<g id="node32" class="node">
<title>MatButtonToggleModule</title>
<polygon fill="#8dd3c7" stroke="black" points="3400.88,-122 3397.88,-126 3376.88,-126 3373.88,-122 3241.12,-122 3241.12,-86 3400.88,-86 3400.88,-122"/>
<text text-anchor="middle" x="3321" y="-99.8" font-family="Times,serif" font-size="14.00">MatButtonToggleModule</text>
</g>
<!-- MatButtonToggleModule&#45;&gt;MixerModule -->
<g id="edge31" class="edge">
<title>MatButtonToggleModule&#45;&gt;MixerModule</title>
<path fill="none" stroke="black" d="M3321,-122.12C3321,-136.78 3321,-155 3321,-155 3321,-155 3820.99,-155 3820.99,-155"/>
<polygon fill="black" stroke="black" points="3820.99,-158.5 3830.99,-155 3820.99,-151.5 3820.99,-158.5"/>
</g>
<!-- MatSlideToggleModule -->
<g id="node33" class="node">
<title>MatSlideToggleModule</title>
<polygon fill="#8dd3c7" stroke="black" points="3223.04,-122 3220.04,-126 3199.04,-126 3196.04,-122 3072.96,-122 3072.96,-86 3223.04,-86 3223.04,-122"/>
<text text-anchor="middle" x="3148" y="-99.8" font-family="Times,serif" font-size="14.00">MatSlideToggleModule</text>
</g>
<!-- MatSlideToggleModule&#45;&gt;MixerModule -->
<g id="edge32" class="edge">
<title>MatSlideToggleModule&#45;&gt;MixerModule</title>
<path fill="none" stroke="black" d="M3148,-122.24C3148,-137.57 3148,-157 3148,-157 3148,-157 3821.22,-157 3821.22,-157"/>
<polygon fill="black" stroke="black" points="3821.22,-160.5 3831.22,-157 3821.22,-153.5 3821.22,-160.5"/>
</g>
<!-- MatCardModule -->
<g id="node34" class="node">
<title>MatCardModule</title>
<polygon fill="#8dd3c7" stroke="black" points="3054.81,-122 3051.81,-126 3030.81,-126 3027.81,-122 2945.19,-122 2945.19,-86 3054.81,-86 3054.81,-122"/>
<text text-anchor="middle" x="3000" y="-99.8" font-family="Times,serif" font-size="14.00">MatCardModule</text>
</g>
<!-- MatCardModule&#45;&gt;MixerModule -->
<g id="edge33" class="edge">
<title>MatCardModule&#45;&gt;MixerModule</title>
<path fill="none" stroke="black" d="M3000,-122.28C3000,-137.95 3000,-158 3000,-158 3000,-158 3821.11,-158 3821.11,-158"/>
<polygon fill="black" stroke="black" points="3821.11,-161.5 3831.11,-158 3821.11,-154.5 3821.11,-161.5"/>
</g>
<!-- MatCheckboxModule -->
<g id="node35" class="node">
<title>MatCheckboxModule</title>
<polygon fill="#8dd3c7" stroke="black" points="2927.37,-122 2924.37,-126 2903.37,-126 2900.37,-122 2788.63,-122 2788.63,-86 2927.37,-86 2927.37,-122"/>
<text text-anchor="middle" x="2858" y="-99.8" font-family="Times,serif" font-size="14.00">MatCheckboxModule</text>
</g>
<!-- MatCheckboxModule&#45;&gt;MixerModule -->
<g id="edge34" class="edge">
<title>MatCheckboxModule&#45;&gt;MixerModule</title>
<path fill="none" stroke="black" d="M2858,-122.01C2858,-138.05 2858,-159 2858,-159 2858,-159 3821.19,-159 3821.19,-159"/>
<polygon fill="black" stroke="black" points="3821.19,-162.5 3831.19,-159 3821.19,-155.5 3821.19,-162.5"/>
</g>
<!-- MatDialogModule -->
<g id="node36" class="node">
<title>MatDialogModule</title>
<polygon fill="#8dd3c7" stroke="black" points="2770.2,-122 2767.2,-126 2746.2,-126 2743.2,-122 2649.8,-122 2649.8,-86 2770.2,-86 2770.2,-122"/>
<text text-anchor="middle" x="2710" y="-99.8" font-family="Times,serif" font-size="14.00">MatDialogModule</text>
</g>
<!-- MatDialogModule&#45;&gt;MixerModule -->
<g id="edge35" class="edge">
<title>MatDialogModule&#45;&gt;MixerModule</title>
<path fill="none" stroke="black" d="M2710,-122.04C2710,-138.73 2710,-161 2710,-161 2710,-161 3821.13,-161 3821.13,-161"/>
<polygon fill="black" stroke="black" points="3821.13,-164.5 3831.13,-161 3821.13,-157.5 3821.13,-164.5"/>
</g>
<!-- MatDividerModule -->
<g id="node37" class="node">
<title>MatDividerModule</title>
<polygon fill="#8dd3c7" stroke="black" points="2631.36,-122 2628.36,-126 2607.36,-126 2604.36,-122 2506.64,-122 2506.64,-86 2631.36,-86 2631.36,-122"/>
<text text-anchor="middle" x="2569" y="-99.8" font-family="Times,serif" font-size="14.00">MatDividerModule</text>
</g>
<!-- MatDividerModule&#45;&gt;MixerModule -->
<g id="edge36" class="edge">
<title>MatDividerModule&#45;&gt;MixerModule</title>
<path fill="none" stroke="black" d="M2569,-122.03C2569,-139.06 2569,-162 2569,-162 2569,-162 3821.03,-162 3821.03,-162"/>
<polygon fill="black" stroke="black" points="3821.03,-165.5 3831.03,-162 3821.03,-158.5 3821.03,-165.5"/>
</g>
<!-- MatExpansionModule -->
<g id="node38" class="node">
<title>MatExpansionModule</title>
<polygon fill="#8dd3c7" stroke="black" points="2488.7,-122 2485.7,-126 2464.7,-126 2461.7,-122 2347.3,-122 2347.3,-86 2488.7,-86 2488.7,-122"/>
<text text-anchor="middle" x="2418" y="-99.8" font-family="Times,serif" font-size="14.00">MatExpansionModule</text>
</g>
<!-- MatExpansionModule&#45;&gt;MixerModule -->
<g id="edge37" class="edge">
<title>MatExpansionModule&#45;&gt;MixerModule</title>
<path fill="none" stroke="black" d="M2418,-122.02C2418,-139.37 2418,-163 2418,-163 2418,-163 3821.08,-163 3821.08,-163"/>
<polygon fill="black" stroke="black" points="3821.08,-166.5 3831.08,-163 3821.08,-159.5 3821.08,-166.5"/>
</g>
<!-- MatFormFieldModule -->
<g id="node39" class="node">
<title>MatFormFieldModule</title>
<polygon fill="#8dd3c7" stroke="black" points="2329.71,-122 2326.71,-126 2305.71,-126 2302.71,-122 2188.29,-122 2188.29,-86 2329.71,-86 2329.71,-122"/>
<text text-anchor="middle" x="2259" y="-99.8" font-family="Times,serif" font-size="14.00">MatFormFieldModule</text>
</g>
<!-- MatFormFieldModule&#45;&gt;MixerModule -->
<g id="edge38" class="edge">
<title>MatFormFieldModule&#45;&gt;MixerModule</title>
<path fill="none" stroke="black" d="M2259,-122.3C2259,-140.27 2259,-165 2259,-165 2259,-165 3820.86,-165 3820.86,-165"/>
<polygon fill="black" stroke="black" points="3820.86,-168.5 3830.86,-165 3820.86,-161.5 3820.86,-168.5"/>
</g>
<!-- MatIconModule -->
<g id="node40" class="node">
<title>MatIconModule</title>
<polygon fill="#8dd3c7" stroke="black" points="2170.47,-122 2167.47,-126 2146.47,-126 2143.47,-122 2063.53,-122 2063.53,-86 2170.47,-86 2170.47,-122"/>
<text text-anchor="middle" x="2117" y="-99.8" font-family="Times,serif" font-size="14.00">MatIconModule</text>
</g>
<!-- MatIconModule&#45;&gt;MixerModule -->
<g id="edge39" class="edge">
<title>MatIconModule&#45;&gt;MixerModule</title>
<path fill="none" stroke="black" d="M2117,-122.27C2117,-140.56 2117,-166 2117,-166 2117,-166 3820.9,-166 3820.9,-166"/>
<polygon fill="black" stroke="black" points="3820.9,-169.5 3830.9,-166 3820.9,-162.5 3820.9,-169.5"/>
</g>
<!-- MatInputModule -->
<g id="node41" class="node">
<title>MatInputModule</title>
<polygon fill="#8dd3c7" stroke="black" points="2045.65,-122 2042.65,-126 2021.65,-126 2018.65,-122 1934.35,-122 1934.35,-86 2045.65,-86 2045.65,-122"/>
<text text-anchor="middle" x="1990" y="-99.8" font-family="Times,serif" font-size="14.00">MatInputModule</text>
</g>
<!-- MatInputModule&#45;&gt;MixerModule -->
<g id="edge40" class="edge">
<title>MatInputModule&#45;&gt;MixerModule</title>
<path fill="none" stroke="black" d="M1990,-122.22C1990,-140.83 1990,-167 1990,-167 1990,-167 3820.86,-167 3820.86,-167"/>
<polygon fill="black" stroke="black" points="3820.86,-170.5 3830.86,-167 3820.86,-163.5 3820.86,-170.5"/>
</g>
<!-- MatListModule -->
<g id="node42" class="node">
<title>MatListModule</title>
<polygon fill="#8dd3c7" stroke="black" points="1915.88,-122 1912.88,-126 1891.88,-126 1888.88,-122 1812.12,-122 1812.12,-86 1915.88,-86 1915.88,-122"/>
<text text-anchor="middle" x="1864" y="-99.8" font-family="Times,serif" font-size="14.00">MatListModule</text>
</g>
<!-- MatListModule&#45;&gt;MixerModule -->
<g id="edge41" class="edge">
<title>MatListModule&#45;&gt;MixerModule</title>
<path fill="none" stroke="black" d="M1864,-122.11C1864,-141.34 1864,-169 1864,-169 1864,-169 3821.18,-169 3821.18,-169"/>
<polygon fill="black" stroke="black" points="3821.18,-172.5 3831.18,-169 3821.18,-165.5 3821.18,-172.5"/>
</g>
<!-- MatMenuModule -->
<g id="node43" class="node">
<title>MatMenuModule</title>
<polygon fill="#8dd3c7" stroke="black" points="1794.26,-122 1791.26,-126 1770.26,-126 1767.26,-122 1679.74,-122 1679.74,-86 1794.26,-86 1794.26,-122"/>
<text text-anchor="middle" x="1737" y="-99.8" font-family="Times,serif" font-size="14.00">MatMenuModule</text>
</g>
<!-- MatMenuModule&#45;&gt;MixerModule -->
<g id="edge42" class="edge">
<title>MatMenuModule&#45;&gt;MixerModule</title>
<path fill="none" stroke="black" d="M1737,-122.03C1737,-141.58 1737,-170 1737,-170 1737,-170 3821.04,-170 3821.04,-170"/>
<polygon fill="black" stroke="black" points="3821.04,-173.5 3831.04,-170 3821.04,-166.5 3821.04,-173.5"/>
</g>
<!-- MatRadioModule -->
<g id="node44" class="node">
<title>MatRadioModule</title>
<polygon fill="#8dd3c7" stroke="black" points="1661.54,-122 1658.54,-126 1637.54,-126 1634.54,-122 1546.46,-122 1546.46,-86 1661.54,-86 1661.54,-122"/>
<text text-anchor="middle" x="1604" y="-99.8" font-family="Times,serif" font-size="14.00">MatRadioModule</text>
</g>
<!-- MatRadioModule&#45;&gt;MixerModule -->
<g id="edge43" class="edge">
<title>MatRadioModule&#45;&gt;MixerModule</title>
<path fill="none" stroke="black" d="M1604,-122.31C1604,-142.15 1604,-171 1604,-171 1604,-171 3821.03,-171 3821.03,-171"/>
<polygon fill="black" stroke="black" points="3821.03,-174.5 3831.03,-171 3821.03,-167.5 3821.03,-174.5"/>
</g>
<!-- MatSelectModule -->
<g id="node45" class="node">
<title>MatSelectModule</title>
<polygon fill="#8dd3c7" stroke="black" points="1528.31,-122 1525.31,-126 1504.31,-126 1501.31,-122 1411.69,-122 1411.69,-86 1528.31,-86 1528.31,-122"/>
<text text-anchor="middle" x="1470" y="-99.8" font-family="Times,serif" font-size="14.00">MatSelectModule</text>
</g>
<!-- MatSelectModule&#45;&gt;MixerModule -->
<g id="edge44" class="edge">
<title>MatSelectModule&#45;&gt;MixerModule</title>
<path fill="none" stroke="black" d="M1470,-122.13C1470,-142.57 1470,-173 1470,-173 1470,-173 3820.98,-173 3820.98,-173"/>
<polygon fill="black" stroke="black" points="3820.98,-176.5 3830.98,-173 3820.98,-169.5 3820.98,-176.5"/>
</g>
<!-- MatSidenavModule -->
<g id="node46" class="node">
<title>MatSidenavModule</title>
<polygon fill="#8dd3c7" stroke="black" points="1393.7,-122 1390.7,-126 1369.7,-126 1366.7,-122 1266.3,-122 1266.3,-86 1393.7,-86 1393.7,-122"/>
<text text-anchor="middle" x="1330" y="-99.8" font-family="Times,serif" font-size="14.00">MatSidenavModule</text>
</g>
<!-- MatSidenavModule&#45;&gt;MixerModule -->
<g id="edge45" class="edge">
<title>MatSidenavModule&#45;&gt;MixerModule</title>
<path fill="none" stroke="black" d="M1330,-122.03C1330,-142.77 1330,-174 1330,-174 1330,-174 3821.05,-174 3821.05,-174"/>
<polygon fill="black" stroke="black" points="3821.05,-177.5 3831.05,-174 3821.05,-170.5 3821.05,-177.5"/>
</g>
<!-- MatSliderModule -->
<g id="node47" class="node">
<title>MatSliderModule</title>
<polygon fill="#8dd3c7" stroke="black" points="1248.54,-122 1245.54,-126 1224.54,-126 1221.54,-122 1133.46,-122 1133.46,-86 1248.54,-86 1248.54,-122"/>
<text text-anchor="middle" x="1191" y="-99.8" font-family="Times,serif" font-size="14.00">MatSliderModule</text>
</g>
<!-- MatSliderModule&#45;&gt;MixerModule -->
<g id="edge46" class="edge">
<title>MatSliderModule&#45;&gt;MixerModule</title>
<path fill="none" stroke="black" d="M1191,-122.28C1191,-143.32 1191,-175 1191,-175 1191,-175 3821.08,-175 3821.08,-175"/>
<polygon fill="black" stroke="black" points="3821.08,-178.5 3831.08,-175 3821.08,-171.5 3821.08,-178.5"/>
</g>
<!-- MatTabsModule -->
<g id="node48" class="node">
<title>MatTabsModule</title>
<polygon fill="#8dd3c7" stroke="black" points="1115.81,-122 1112.81,-126 1091.81,-126 1088.81,-122 1006.19,-122 1006.19,-86 1115.81,-86 1115.81,-122"/>
<text text-anchor="middle" x="1061" y="-99.8" font-family="Times,serif" font-size="14.00">MatTabsModule</text>
</g>
<!-- MatTabsModule&#45;&gt;MixerModule -->
<g id="edge47" class="edge">
<title>MatTabsModule&#45;&gt;MixerModule</title>
<path fill="none" stroke="black" d="M1061,-122.04C1061,-143.66 1061,-177 1061,-177 1061,-177 3821.17,-177 3821.17,-177"/>
<polygon fill="black" stroke="black" points="3821.17,-180.5 3831.17,-177 3821.17,-173.5 3821.17,-180.5"/>
</g>
<!-- MatToolbarModule -->
<g id="node49" class="node">
<title>MatToolbarModule</title>
<polygon fill="#8dd3c7" stroke="black" points="988.42,-122 985.42,-126 964.42,-126 961.42,-122 861.58,-122 861.58,-86 988.42,-86 988.42,-122"/>
<text text-anchor="middle" x="925" y="-99.8" font-family="Times,serif" font-size="14.00">MatToolbarModule</text>
</g>
<!-- MatToolbarModule&#45;&gt;MixerModule -->
<g id="edge48" class="edge">
<title>MatToolbarModule&#45;&gt;MixerModule</title>
<path fill="none" stroke="black" d="M925,-122.29C925,-144.21 925,-178 925,-178 925,-178 3821.02,-178 3821.02,-178"/>
<polygon fill="black" stroke="black" points="3821.02,-181.5 3831.02,-178 3821.02,-174.5 3821.02,-181.5"/>
</g>
<!-- MatTooltipModule -->
<g id="node50" class="node">
<title>MatTooltipModule</title>
<polygon fill="#8dd3c7" stroke="black" points="843.82,-122 840.82,-126 819.82,-126 816.82,-122 720.18,-122 720.18,-86 843.82,-86 843.82,-122"/>
<text text-anchor="middle" x="782" y="-99.8" font-family="Times,serif" font-size="14.00">MatTooltipModule</text>
</g>
<!-- MatTooltipModule&#45;&gt;MixerModule -->
<g id="edge49" class="edge">
<title>MatTooltipModule&#45;&gt;MixerModule</title>
<path fill="none" stroke="black" d="M782,-122.16C782,-144.35 782,-179 782,-179 782,-179 3821.22,-179 3821.22,-179"/>
<polygon fill="black" stroke="black" points="3821.22,-182.5 3831.22,-179 3821.22,-175.5 3821.22,-182.5"/>
</g>
<!-- ColorPickerModule -->
<g id="node51" class="node">
<title>ColorPickerModule</title>
<polygon fill="#8dd3c7" stroke="black" points="702.7,-122 699.7,-126 678.7,-126 675.7,-122 575.3,-122 575.3,-86 702.7,-86 702.7,-122"/>
<text text-anchor="middle" x="639" y="-99.8" font-family="Times,serif" font-size="14.00">ColorPickerModule</text>
</g>
<!-- ColorPickerModule&#45;&gt;MixerModule -->
<g id="edge50" class="edge">
<title>ColorPickerModule&#45;&gt;MixerModule</title>
<path fill="none" stroke="black" d="M639,-122.25C639,-145.02 639,-181 639,-181 639,-181 3820.96,-181 3820.96,-181"/>
<polygon fill="black" stroke="black" points="3820.96,-184.5 3830.96,-181 3820.96,-177.5 3820.96,-184.5"/>
</g>
<!-- MatChipsModule -->
<g id="node52" class="node">
<title>MatChipsModule</title>
<polygon fill="#8dd3c7" stroke="black" points="557.27,-122 554.27,-126 533.27,-126 530.27,-122 442.73,-122 442.73,-86 557.27,-86 557.27,-122"/>
<text text-anchor="middle" x="500" y="-99.8" font-family="Times,serif" font-size="14.00">MatChipsModule</text>
</g>
<!-- MatChipsModule&#45;&gt;MixerModule -->
<g id="edge51" class="edge">
<title>MatChipsModule&#45;&gt;MixerModule</title>
<path fill="none" stroke="black" d="M500,-122.09C500,-145.13 500,-182 500,-182 500,-182 3821.21,-182 3821.21,-182"/>
<polygon fill="black" stroke="black" points="3821.21,-185.5 3831.21,-182 3821.21,-178.5 3821.21,-185.5"/>
</g>
<!-- MatSnackBarModule -->
<g id="node53" class="node">
<title>MatSnackBarModule</title>
<polygon fill="#8dd3c7" stroke="black" points="424.02,-122 421.02,-126 400.02,-126 397.02,-122 287.98,-122 287.98,-86 424.02,-86 424.02,-122"/>
<text text-anchor="middle" x="356" y="-99.8" font-family="Times,serif" font-size="14.00">MatSnackBarModule</text>
</g>
<!-- MatSnackBarModule&#45;&gt;MixerModule -->
<g id="edge52" class="edge">
<title>MatSnackBarModule&#45;&gt;MixerModule</title>
<path fill="none" stroke="black" d="M356,-122.32C356,-145.66 356,-183 356,-183 356,-183 3821.2,-183 3821.2,-183"/>
<polygon fill="black" stroke="black" points="3821.2,-186.5 3831.2,-183 3821.2,-179.5 3821.2,-186.5"/>
</g>
<!-- ScrollingModule -->
<g id="node54" class="node">
<title>ScrollingModule</title>
<polygon fill="#8dd3c7" stroke="black" points="269.38,-122 266.38,-126 245.38,-126 242.38,-122 158.62,-122 158.62,-86 269.38,-86 269.38,-122"/>
<text text-anchor="middle" x="214" y="-99.8" font-family="Times,serif" font-size="14.00">ScrollingModule</text>
</g>
<!-- ScrollingModule&#45;&gt;MixerModule -->
<g id="edge53" class="edge">
<title>ScrollingModule&#45;&gt;MixerModule</title>
<path fill="none" stroke="black" d="M214,-122.38C214,-146.28 214,-185 214,-185 214,-185 3821.01,-185 3821.01,-185"/>
<polygon fill="black" stroke="black" points="3821.01,-188.5 3831.01,-185 3821.01,-181.5 3821.01,-188.5"/>
</g>
<!-- DragDropModule -->
<g id="node55" class="node">
<title>DragDropModule</title>
<polygon fill="#8dd3c7" stroke="black" points="140.3,-122 137.3,-126 116.3,-126 113.3,-122 23.7,-122 23.7,-86 140.3,-86 140.3,-122"/>
<text text-anchor="middle" x="82" y="-99.8" font-family="Times,serif" font-size="14.00">DragDropModule</text>
</g>
<!-- DragDropModule&#45;&gt;MixerModule -->
<g id="edge54" class="edge">
<title>DragDropModule&#45;&gt;MixerModule</title>
<path fill="none" stroke="black" d="M82,-122.2C82,-146.36 82,-186 82,-186 82,-186 3821.03,-186 3821.03,-186"/>
<polygon fill="black" stroke="black" points="3821.03,-189.5 3831.03,-186 3821.03,-182.5 3821.03,-189.5"/>
</g>
</g>
</svg>
