<?xml version="1.0" encoding="UTF-8" standalone="no"?>
<!DOCTYPE svg PUBLIC "-//W3C//DTD SVG 1.1//EN"
 "http://www.w3.org/Graphics/SVG/1.1/DTD/svg11.dtd">
<!-- Generated by graphviz version 5.0.0 (20220707.1540)
 -->
<!-- Title: dependencies Pages: 1 -->
<svg width="2300pt" height="174pt"
 viewBox="0.00 0.00 2300.00 173.80" xmlns="http://www.w3.org/2000/svg" xmlns:xlink="http://www.w3.org/1999/xlink">
<g id="graph0" class="graph" transform="scale(1 1) rotate(0) translate(4 169.8)">
<title>dependencies</title>
<polygon fill="white" stroke="transparent" points="-4,4 -4,-169.8 2296,-169.8 2296,4 -4,4"/>
<text text-anchor="middle" x="1146" y="-8.2" font-family="sans-serif" font-size="14.00">dependencies</text>
<g id="clust1" class="cluster">
<title>cluster_MixerModule</title>
<polygon fill="none" stroke="black" stroke-dasharray="1,5" points="8,-32.8 8,-157.8 2284,-157.8 2284,-32.8 8,-32.8"/>
</g>
<g id="clust2" class="cluster">
<title>cluster_MixerModule_declarations</title>
<polygon fill="none" stroke="black" points="136,-40.8 136,-92.8 2276,-92.8 2276,-40.8 136,-40.8"/>
</g>
<g id="clust18" class="cluster">
<title>cluster_MixerModule_imports</title>
<polygon fill="none" stroke="black" points="16,-40.8 16,-92.8 128,-92.8 128,-40.8 16,-40.8"/>
</g>
<!-- ConnectionComponent -->
<g id="node1" class="node">
<title>ConnectionComponent</title>
<polygon fill="#ffffb3" stroke="black" points="2267.88,-84.8 2122.12,-84.8 2122.12,-48.8 2267.88,-48.8 2267.88,-84.8"/>
<text text-anchor="middle" x="2195" y="-62.6" font-family="Times,serif" font-size="14.00">ConnectionComponent</text>
</g>
<!-- MixerModule -->
<g id="node16" class="node">
<title>MixerModule</title>
<polygon fill="#8dd3c7" stroke="black" points="1169.77,-149.8 1166.77,-153.8 1145.77,-153.8 1142.77,-149.8 1076.23,-149.8 1076.23,-113.8 1169.77,-113.8 1169.77,-149.8"/>
<text text-anchor="middle" x="1123" y="-127.6" font-family="Times,serif" font-size="14.00">MixerModule</text>
</g>
<!-- ConnectionComponent&#45;&gt;MixerModule -->
<g id="edge1" class="edge">
<title>ConnectionComponent&#45;&gt;MixerModule</title>
<path fill="none" stroke="black" d="M2195,-85.12C2195,-108.46 2195,-145.8 2195,-145.8 2195,-145.8 1180.1,-145.8 1180.1,-145.8"/>
<polygon fill="black" stroke="black" points="1180.1,-142.3 1170.1,-145.8 1180.1,-149.3 1180.1,-142.3"/>
</g>
<!-- DraftdetailComponent -->
<g id="node2" class="node">
<title>DraftdetailComponent</title>
<polygon fill="#ffffb3" stroke="black" points="2103.97,-84.8 1962.03,-84.8 1962.03,-48.8 2103.97,-48.8 2103.97,-84.8"/>
<text text-anchor="middle" x="2033" y="-62.6" font-family="Times,serif" font-size="14.00">DraftdetailComponent</text>
</g>
<!-- DraftdetailComponent&#45;&gt;MixerModule -->
<g id="edge2" class="edge">
<title>DraftdetailComponent&#45;&gt;MixerModule</title>
<path fill="none" stroke="black" d="M2033,-85.09C2033,-107.01 2033,-140.8 2033,-140.8 2033,-140.8 1180.01,-140.8 1180.01,-140.8"/>
<polygon fill="black" stroke="black" points="1180.01,-137.3 1170.01,-140.8 1180.01,-144.3 1180.01,-137.3"/>
</g>
<!-- ImageComponent -->
<g id="node3" class="node">
<title>ImageComponent</title>
<polygon fill="#ffffb3" stroke="black" points="1944.31,-84.8 1827.69,-84.8 1827.69,-48.8 1944.31,-48.8 1944.31,-84.8"/>
<text text-anchor="middle" x="1886" y="-62.6" font-family="Times,serif" font-size="14.00">ImageComponent</text>
</g>
<!-- ImageComponent&#45;&gt;MixerModule -->
<g id="edge3" class="edge">
<title>ImageComponent&#45;&gt;MixerModule</title>
<path fill="none" stroke="black" d="M1886,-84.83C1886,-105.57 1886,-136.8 1886,-136.8 1886,-136.8 1179.87,-136.8 1179.87,-136.8"/>
<polygon fill="black" stroke="black" points="1179.87,-133.3 1169.87,-136.8 1179.87,-140.3 1179.87,-133.3"/>
</g>
<!-- InletComponent -->
<g id="node4" class="node">
<title>InletComponent</title>
<polygon fill="#ffffb3" stroke="black" points="1809.49,-84.8 1702.51,-84.8 1702.51,-48.8 1809.49,-48.8 1809.49,-84.8"/>
<text text-anchor="middle" x="1756" y="-62.6" font-family="Times,serif" font-size="14.00">InletComponent</text>
</g>
<!-- InletComponent&#45;&gt;MixerModule -->
<g id="edge4" class="edge">
<title>InletComponent&#45;&gt;MixerModule</title>
<path fill="none" stroke="black" d="M1756,-84.91C1756,-104.14 1756,-131.8 1756,-131.8 1756,-131.8 1179.8,-131.8 1179.8,-131.8"/>
<polygon fill="black" stroke="black" points="1179.8,-128.3 1169.8,-131.8 1179.8,-135.3 1179.8,-128.3"/>
</g>
<!-- MarqueeComponent -->
<g id="node5" class="node">
<title>MarqueeComponent</title>
<polygon fill="#ffffb3" stroke="black" points="1684.58,-84.8 1553.42,-84.8 1553.42,-48.8 1684.58,-48.8 1684.58,-84.8"/>
<text text-anchor="middle" x="1619" y="-62.6" font-family="Times,serif" font-size="14.00">MarqueeComponent</text>
</g>
<!-- MarqueeComponent&#45;&gt;MixerModule -->
<g id="edge5" class="edge">
<title>MarqueeComponent&#45;&gt;MixerModule</title>
<path fill="none" stroke="black" d="M1619,-85.1C1619,-103.07 1619,-127.8 1619,-127.8 1619,-127.8 1180.11,-127.8 1180.11,-127.8"/>
<polygon fill="black" stroke="black" points="1180.11,-124.3 1170.11,-127.8 1180.11,-131.3 1180.11,-124.3"/>
</g>
<!-- MixerComponent -->
<g id="node6" class="node">
<title>MixerComponent</title>
<polygon fill="#ffffb3" stroke="black" points="1535.55,-84.8 1420.45,-84.8 1420.45,-48.8 1535.55,-48.8 1535.55,-84.8"/>
<text text-anchor="middle" x="1478" y="-62.6" font-family="Times,serif" font-size="14.00">MixerComponent</text>
</g>
<!-- MixerComponent&#45;&gt;MixerModule -->
<g id="edge6" class="edge">
<title>MixerComponent&#45;&gt;MixerModule</title>
<path fill="none" stroke="black" d="M1478,-84.83C1478,-101.2 1478,-122.8 1478,-122.8 1478,-122.8 1179.78,-122.8 1179.78,-122.8"/>
<polygon fill="black" stroke="black" points="1179.78,-119.3 1169.78,-122.8 1179.78,-126.3 1179.78,-119.3"/>
</g>
<!-- MixerViewComponent -->
<g id="node7" class="node">
<title>MixerViewComponent</title>
<polygon fill="#ffffb3" stroke="black" points="1401.87,-84.8 1256.13,-84.8 1256.13,-48.8 1401.87,-48.8 1401.87,-84.8"/>
<text text-anchor="middle" x="1329" y="-62.6" font-family="Times,serif" font-size="14.00">MixerViewComponent</text>
</g>
<!-- MixerViewComponent&#45;&gt;MixerModule -->
<g id="edge7" class="edge">
<title>MixerViewComponent&#45;&gt;MixerModule</title>
<path fill="none" stroke="black" d="M1329,-84.99C1329,-99.98 1329,-118.8 1329,-118.8 1329,-118.8 1180,-118.8 1180,-118.8"/>
<polygon fill="black" stroke="black" points="1180,-115.3 1170,-118.8 1180,-122.3 1180,-115.3"/>
</g>
<!-- NoteComponent -->
<g id="node8" class="node">
<title>NoteComponent</title>
<polygon fill="#ffffb3" stroke="black" points="1238.05,-84.8 1129.95,-84.8 1129.95,-48.8 1238.05,-48.8 1238.05,-84.8"/>
<text text-anchor="middle" x="1184" y="-62.6" font-family="Times,serif" font-size="14.00">NoteComponent</text>
</g>
<!-- NoteComponent&#45;&gt;MixerModule -->
<g id="edge8" class="edge">
<title>NoteComponent&#45;&gt;MixerModule</title>
<path fill="none" stroke="black" d="M1149.81,-84.91C1149.81,-84.91 1149.81,-103.79 1149.81,-103.79"/>
<polygon fill="black" stroke="black" points="1146.31,-103.79 1149.81,-113.79 1153.31,-103.79 1146.31,-103.79"/>
</g>
<!-- OpHelpModal -->
<g id="node9" class="node">
<title>OpHelpModal</title>
<polygon fill="#ffffb3" stroke="black" points="1111.38,-84.8 1014.62,-84.8 1014.62,-48.8 1111.38,-48.8 1111.38,-84.8"/>
<text text-anchor="middle" x="1063" y="-62.6" font-family="Times,serif" font-size="14.00">OpHelpModal</text>
</g>
<!-- OpHelpModal&#45;&gt;MixerModule -->
<g id="edge9" class="edge">
<title>OpHelpModal&#45;&gt;MixerModule</title>
<path fill="none" stroke="black" d="M1093.78,-84.91C1093.78,-84.91 1093.78,-103.79 1093.78,-103.79"/>
<polygon fill="black" stroke="black" points="1090.28,-103.79 1093.78,-113.79 1097.28,-103.79 1090.28,-103.79"/>
</g>
<!-- OperationComponent -->
<g id="node10" class="node">
<title>OperationComponent</title>
<polygon fill="#ffffb3" stroke="black" points="996.81,-84.8 859.19,-84.8 859.19,-48.8 996.81,-48.8 996.81,-84.8"/>
<text text-anchor="middle" x="928" y="-62.6" font-family="Times,serif" font-size="14.00">OperationComponent</text>
</g>
<!-- OperationComponent&#45;&gt;MixerModule -->
<g id="edge10" class="edge">
<title>OperationComponent&#45;&gt;MixerModule</title>
<path fill="none" stroke="black" d="M928,-84.99C928,-99.98 928,-118.8 928,-118.8 928,-118.8 1065.8,-118.8 1065.8,-118.8"/>
<polygon fill="black" stroke="black" points="1065.8,-122.3 1075.8,-118.8 1065.8,-115.3 1065.8,-122.3"/>
</g>
<!-- OpsComponent -->
<g id="node11" class="node">
<title>OpsComponent</title>
<polygon fill="#ffffb3" stroke="black" points="840.89,-84.8 737.11,-84.8 737.11,-48.8 840.89,-48.8 840.89,-84.8"/>
<text text-anchor="middle" x="789" y="-62.6" font-family="Times,serif" font-size="14.00">OpsComponent</text>
</g>
<!-- OpsComponent&#45;&gt;MixerModule -->
<g id="edge11" class="edge">
<title>OpsComponent&#45;&gt;MixerModule</title>
<path fill="none" stroke="black" d="M789,-84.83C789,-101.2 789,-122.8 789,-122.8 789,-122.8 1066.21,-122.8 1066.21,-122.8"/>
<polygon fill="black" stroke="black" points="1066.21,-126.3 1076.21,-122.8 1066.21,-119.3 1066.21,-126.3"/>
</g>
<!-- PaletteComponent -->
<g id="node12" class="node">
<title>PaletteComponent</title>
<polygon fill="#ffffb3" stroke="black" points="718.93,-84.8 599.07,-84.8 599.07,-48.8 718.93,-48.8 718.93,-84.8"/>
<text text-anchor="middle" x="659" y="-62.6" font-family="Times,serif" font-size="14.00">PaletteComponent</text>
</g>
<!-- PaletteComponent&#45;&gt;MixerModule -->
<g id="edge12" class="edge">
<title>PaletteComponent&#45;&gt;MixerModule</title>
<path fill="none" stroke="black" d="M659,-85.1C659,-103.07 659,-127.8 659,-127.8 659,-127.8 1065.96,-127.8 1065.96,-127.8"/>
<polygon fill="black" stroke="black" points="1065.96,-131.3 1075.96,-127.8 1065.96,-124.3 1065.96,-131.3"/>
</g>
<!-- ParameterComponent -->
<g id="node13" class="node">
<title>ParameterComponent</title>
<polygon fill="#ffffb3" stroke="black" points="581.08,-84.8 442.92,-84.8 442.92,-48.8 581.08,-48.8 581.08,-84.8"/>
<text text-anchor="middle" x="512" y="-62.6" font-family="Times,serif" font-size="14.00">ParameterComponent</text>
</g>
<!-- ParameterComponent&#45;&gt;MixerModule -->
<g id="edge13" class="edge">
<title>ParameterComponent&#45;&gt;MixerModule</title>
<path fill="none" stroke="black" d="M512,-84.91C512,-104.14 512,-131.8 512,-131.8 512,-131.8 1066.07,-131.8 1066.07,-131.8"/>
<polygon fill="black" stroke="black" points="1066.07,-135.3 1076.07,-131.8 1066.07,-128.3 1066.07,-135.3"/>
</g>
<!-- SnackbarComponent -->
<g id="node14" class="node">
<title>SnackbarComponent</title>
<polygon fill="#ffffb3" stroke="black" points="424.92,-84.8 291.08,-84.8 291.08,-48.8 424.92,-48.8 424.92,-84.8"/>
<text text-anchor="middle" x="358" y="-62.6" font-family="Times,serif" font-size="14.00">SnackbarComponent</text>
</g>
<!-- SnackbarComponent&#45;&gt;MixerModule -->
<g id="edge14" class="edge">
<title>SnackbarComponent&#45;&gt;MixerModule</title>
<path fill="none" stroke="black" d="M358,-84.83C358,-105.57 358,-136.8 358,-136.8 358,-136.8 1066.01,-136.8 1066.01,-136.8"/>
<polygon fill="black" stroke="black" points="1066.01,-140.3 1076.01,-136.8 1066.01,-133.3 1066.01,-140.3"/>
</g>
<!-- SubdraftComponent -->
<g id="node15" class="node">
<title>SubdraftComponent</title>
<polygon fill="#ffffb3" stroke="black" points="273.55,-84.8 144.45,-84.8 144.45,-48.8 273.55,-48.8 273.55,-84.8"/>
<text text-anchor="middle" x="209" y="-62.6" font-family="Times,serif" font-size="14.00">SubdraftComponent</text>
</g>
<!-- SubdraftComponent&#45;&gt;MixerModule -->
<g id="edge15" class="edge">
<title>SubdraftComponent&#45;&gt;MixerModule</title>
<path fill="none" stroke="black" d="M209,-85.09C209,-107.01 209,-140.8 209,-140.8 209,-140.8 1066.1,-140.8 1066.1,-140.8"/>
<polygon fill="black" stroke="black" points="1066.1,-144.3 1076.1,-140.8 1066.1,-137.3 1066.1,-144.3"/>
</g>
<!-- PlayerModule -->
<g id="node17" class="node">
<title>PlayerModule</title>
<polygon fill="#8dd3c7" stroke="black" points="119.82,-84.8 116.82,-88.8 95.82,-88.8 92.82,-84.8 24.18,-84.8 24.18,-48.8 119.82,-48.8 119.82,-84.8"/>
<text text-anchor="middle" x="72" y="-62.6" font-family="Times,serif" font-size="14.00">PlayerModule</text>
</g>
<!-- PlayerModule&#45;&gt;MixerModule -->
<g id="edge16" class="edge">
<title>PlayerModule&#45;&gt;MixerModule</title>
<path fill="none" stroke="black" d="M72,-85.12C72,-108.46 72,-145.8 72,-145.8 72,-145.8 1066.14,-145.8 1066.14,-145.8"/>
<polygon fill="black" stroke="black" points="1066.14,-149.3 1076.14,-145.8 1066.14,-142.3 1066.14,-149.3"/>
</g>
</g>
</svg>
