<?xml version="1.0" encoding="UTF-8" standalone="no"?>
<!DOCTYPE svg PUBLIC "-//W3C//DTD SVG 1.1//EN"
 "http://www.w3.org/Graphics/SVG/1.1/DTD/svg11.dtd">
<!-- Generated by graphviz version 5.0.0 (20220707.1540)
 -->
<!-- Title: dependencies Pages: 1 -->
<svg width="2300pt" height="174pt"
 viewBox="0.00 0.00 2300.00 173.80" xmlns="http://www.w3.org/2000/svg" xmlns:xlink="http://www.w3.org/1999/xlink">
<g id="graph0" class="graph" transform="scale(1 1) rotate(0) translate(4 169.8)">
<title>dependencies</title>
<polygon fill="white" stroke="transparent" points="-4,4 -4,-169.8 2296,-169.8 2296,4 -4,4"/>
<text text-anchor="middle" x="1146" y="-8.2" font-family="sans-serif" font-size="14.00">dependencies</text>
<g id="clust1" class="cluster">
<title>cluster_MixerModule</title>
<polygon fill="none" stroke="black" stroke-dasharray="1,5" points="8,-32.8 8,-157.8 2284,-157.8 2284,-32.8 8,-32.8"/>
</g>
<g id="clust18" class="cluster">
<title>cluster_MixerModule_imports</title>
<polygon fill="none" stroke="black" points="2164,-40.8 2164,-92.8 2276,-92.8 2276,-40.8 2164,-40.8"/>
</g>
<g id="clust2" class="cluster">
<title>cluster_MixerModule_declarations</title>
<polygon fill="none" stroke="black" points="16,-40.8 16,-92.8 2156,-92.8 2156,-40.8 16,-40.8"/>
</g>
<!-- ConnectionComponent -->
<g id="node1" class="node">
<title>ConnectionComponent</title>
<polygon fill="#ffffb3" stroke="black" points="2147.88,-84.8 2002.12,-84.8 2002.12,-48.8 2147.88,-48.8 2147.88,-84.8"/>
<text text-anchor="middle" x="2075" y="-62.6" font-family="Times,serif" font-size="14.00">ConnectionComponent</text>
</g>
<!-- MixerModule -->
<g id="node16" class="node">
<title>MixerModule</title>
<polygon fill="#8dd3c7" stroke="black" points="1182.77,-149.8 1179.77,-153.8 1158.77,-153.8 1155.77,-149.8 1089.23,-149.8 1089.23,-113.8 1182.77,-113.8 1182.77,-149.8"/>
<text text-anchor="middle" x="1136" y="-127.6" font-family="Times,serif" font-size="14.00">MixerModule</text>
</g>
<!-- ConnectionComponent&#45;&gt;MixerModule -->
<g id="edge1" class="edge">
<title>ConnectionComponent&#45;&gt;MixerModule</title>
<path fill="none" stroke="black" d="M2075,-85.09C2075,-107.01 2075,-140.8 2075,-140.8 2075,-140.8 1192.89,-140.8 1192.89,-140.8"/>
<polygon fill="black" stroke="black" points="1192.89,-137.3 1182.89,-140.8 1192.89,-144.3 1192.89,-137.3"/>
</g>
<!-- DraftdetailComponent -->
<g id="node2" class="node">
<title>DraftdetailComponent</title>
<polygon fill="#ffffb3" stroke="black" points="1983.97,-84.8 1842.03,-84.8 1842.03,-48.8 1983.97,-48.8 1983.97,-84.8"/>
<text text-anchor="middle" x="1913" y="-62.6" font-family="Times,serif" font-size="14.00">DraftdetailComponent</text>
</g>
<!-- DraftdetailComponent&#45;&gt;MixerModule -->
<g id="edge2" class="edge">
<title>DraftdetailComponent&#45;&gt;MixerModule</title>
<path fill="none" stroke="black" d="M1913,-84.83C1913,-105.57 1913,-136.8 1913,-136.8 1913,-136.8 1192.86,-136.8 1192.86,-136.8"/>
<polygon fill="black" stroke="black" points="1192.86,-133.3 1182.86,-136.8 1192.85,-140.3 1192.86,-133.3"/>
</g>
<!-- ImageComponent -->
<g id="node3" class="node">
<title>ImageComponent</title>
<polygon fill="#ffffb3" stroke="black" points="1824.31,-84.8 1707.69,-84.8 1707.69,-48.8 1824.31,-48.8 1824.31,-84.8"/>
<text text-anchor="middle" x="1766" y="-62.6" font-family="Times,serif" font-size="14.00">ImageComponent</text>
</g>
<!-- ImageComponent&#45;&gt;MixerModule -->
<g id="edge3" class="edge">
<title>ImageComponent&#45;&gt;MixerModule</title>
<path fill="none" stroke="black" d="M1766,-84.91C1766,-104.14 1766,-131.8 1766,-131.8 1766,-131.8 1192.84,-131.8 1192.84,-131.8"/>
<polygon fill="black" stroke="black" points="1192.84,-128.3 1182.84,-131.8 1192.84,-135.3 1192.84,-128.3"/>
</g>
<!-- InletComponent -->
<g id="node4" class="node">
<title>InletComponent</title>
<polygon fill="#ffffb3" stroke="black" points="1689.49,-84.8 1582.51,-84.8 1582.51,-48.8 1689.49,-48.8 1689.49,-84.8"/>
<text text-anchor="middle" x="1636" y="-62.6" font-family="Times,serif" font-size="14.00">InletComponent</text>
</g>
<!-- InletComponent&#45;&gt;MixerModule -->
<g id="edge4" class="edge">
<title>InletComponent&#45;&gt;MixerModule</title>
<path fill="none" stroke="black" d="M1636,-85.1C1636,-103.07 1636,-127.8 1636,-127.8 1636,-127.8 1193.04,-127.8 1193.04,-127.8"/>
<polygon fill="black" stroke="black" points="1193.04,-124.3 1183.04,-127.8 1193.04,-131.3 1193.04,-124.3"/>
</g>
<!-- MarqueeComponent -->
<g id="node5" class="node">
<title>MarqueeComponent</title>
<polygon fill="#ffffb3" stroke="black" points="1564.58,-84.8 1433.42,-84.8 1433.42,-48.8 1564.58,-48.8 1564.58,-84.8"/>
<text text-anchor="middle" x="1499" y="-62.6" font-family="Times,serif" font-size="14.00">MarqueeComponent</text>
</g>
<!-- MarqueeComponent&#45;&gt;MixerModule -->
<g id="edge5" class="edge">
<title>MarqueeComponent&#45;&gt;MixerModule</title>
<path fill="none" stroke="black" d="M1499,-84.83C1499,-101.2 1499,-122.8 1499,-122.8 1499,-122.8 1193.08,-122.8 1193.08,-122.8"/>
<polygon fill="black" stroke="black" points="1193.08,-119.3 1183.08,-122.8 1193.08,-126.3 1193.08,-119.3"/>
</g>
<!-- MixerComponent -->
<g id="node6" class="node">
<title>MixerComponent</title>
<polygon fill="#ffffb3" stroke="black" points="1415.55,-84.8 1300.45,-84.8 1300.45,-48.8 1415.55,-48.8 1415.55,-84.8"/>
<text text-anchor="middle" x="1358" y="-62.6" font-family="Times,serif" font-size="14.00">MixerComponent</text>
</g>
<!-- MixerComponent&#45;&gt;MixerModule -->
<g id="edge6" class="edge">
<title>MixerComponent&#45;&gt;MixerModule</title>
<path fill="none" stroke="black" d="M1358,-84.99C1358,-99.98 1358,-118.8 1358,-118.8 1358,-118.8 1192.81,-118.8 1192.81,-118.8"/>
<polygon fill="black" stroke="black" points="1192.81,-115.3 1182.81,-118.8 1192.81,-122.3 1192.81,-115.3"/>
</g>
<!-- MixerViewComponent -->
<g id="node7" class="node">
<title>MixerViewComponent</title>
<polygon fill="#ffffb3" stroke="black" points="1281.87,-84.8 1136.13,-84.8 1136.13,-48.8 1281.87,-48.8 1281.87,-84.8"/>
<text text-anchor="middle" x="1209" y="-62.6" font-family="Times,serif" font-size="14.00">MixerViewComponent</text>
</g>
<!-- MixerViewComponent&#45;&gt;MixerModule -->
<g id="edge7" class="edge">
<title>MixerViewComponent&#45;&gt;MixerModule</title>
<path fill="none" stroke="black" d="M1159.47,-84.91C1159.47,-84.91 1159.47,-103.79 1159.47,-103.79"/>
<polygon fill="black" stroke="black" points="1155.97,-103.79 1159.47,-113.79 1162.97,-103.79 1155.97,-103.79"/>
</g>
<!-- NoteComponent -->
<g id="node8" class="node">
<title>NoteComponent</title>
<polygon fill="#ffffb3" stroke="black" points="1118.05,-84.8 1009.95,-84.8 1009.95,-48.8 1118.05,-48.8 1118.05,-84.8"/>
<text text-anchor="middle" x="1064" y="-62.6" font-family="Times,serif" font-size="14.00">NoteComponent</text>
</g>
<!-- NoteComponent&#45;&gt;MixerModule -->
<g id="edge8" class="edge">
<title>NoteComponent&#45;&gt;MixerModule</title>
<path fill="none" stroke="black" d="M1103.69,-84.91C1103.69,-84.91 1103.69,-103.79 1103.69,-103.79"/>
<polygon fill="black" stroke="black" points="1100.19,-103.79 1103.69,-113.79 1107.19,-103.79 1100.19,-103.79"/>
</g>
<!-- OpHelpModal -->
<g id="node9" class="node">
<title>OpHelpModal</title>
<polygon fill="#ffffb3" stroke="black" points="991.38,-84.8 894.62,-84.8 894.62,-48.8 991.38,-48.8 991.38,-84.8"/>
<text text-anchor="middle" x="943" y="-62.6" font-family="Times,serif" font-size="14.00">OpHelpModal</text>
</g>
<!-- OpHelpModal&#45;&gt;MixerModule -->
<g id="edge9" class="edge">
<title>OpHelpModal&#45;&gt;MixerModule</title>
<path fill="none" stroke="black" d="M943,-84.99C943,-99.98 943,-118.8 943,-118.8 943,-118.8 1078.79,-118.8 1078.79,-118.8"/>
<polygon fill="black" stroke="black" points="1078.79,-122.3 1088.79,-118.8 1078.79,-115.3 1078.79,-122.3"/>
</g>
<!-- OperationComponent -->
<g id="node10" class="node">
<title>OperationComponent</title>
<polygon fill="#ffffb3" stroke="black" points="876.81,-84.8 739.19,-84.8 739.19,-48.8 876.81,-48.8 876.81,-84.8"/>
<text text-anchor="middle" x="808" y="-62.6" font-family="Times,serif" font-size="14.00">OperationComponent</text>
</g>
<!-- OperationComponent&#45;&gt;MixerModule -->
<g id="edge10" class="edge">
<title>OperationComponent&#45;&gt;MixerModule</title>
<path fill="none" stroke="black" d="M808,-84.83C808,-101.2 808,-122.8 808,-122.8 808,-122.8 1079.01,-122.8 1079.01,-122.8"/>
<polygon fill="black" stroke="black" points="1079.01,-126.3 1089.01,-122.8 1079.01,-119.3 1079.01,-126.3"/>
</g>
<!-- OpsComponent -->
<g id="node11" class="node">
<title>OpsComponent</title>
<polygon fill="#ffffb3" stroke="black" points="720.89,-84.8 617.11,-84.8 617.11,-48.8 720.89,-48.8 720.89,-84.8"/>
<text text-anchor="middle" x="669" y="-62.6" font-family="Times,serif" font-size="14.00">OpsComponent</text>
</g>
<!-- OpsComponent&#45;&gt;MixerModule -->
<g id="edge11" class="edge">
<title>OpsComponent&#45;&gt;MixerModule</title>
<path fill="none" stroke="black" d="M669,-85.1C669,-103.07 669,-127.8 669,-127.8 669,-127.8 1079.08,-127.8 1079.08,-127.8"/>
<polygon fill="black" stroke="black" points="1079.08,-131.3 1089.08,-127.8 1079.08,-124.3 1079.08,-131.3"/>
</g>
<!-- PaletteComponent -->
<g id="node12" class="node">
<title>PaletteComponent</title>
<polygon fill="#ffffb3" stroke="black" points="598.93,-84.8 479.07,-84.8 479.07,-48.8 598.93,-48.8 598.93,-84.8"/>
<text text-anchor="middle" x="539" y="-62.6" font-family="Times,serif" font-size="14.00">PaletteComponent</text>
</g>
<!-- PaletteComponent&#45;&gt;MixerModule -->
<g id="edge12" class="edge">
<title>PaletteComponent&#45;&gt;MixerModule</title>
<path fill="none" stroke="black" d="M539,-84.91C539,-104.14 539,-131.8 539,-131.8 539,-131.8 1079.15,-131.8 1079.15,-131.8"/>
<polygon fill="black" stroke="black" points="1079.15,-135.3 1089.15,-131.8 1079.15,-128.3 1079.15,-135.3"/>
</g>
<!-- ParameterComponent -->
<g id="node13" class="node">
<title>ParameterComponent</title>
<polygon fill="#ffffb3" stroke="black" points="461.08,-84.8 322.92,-84.8 322.92,-48.8 461.08,-48.8 461.08,-84.8"/>
<text text-anchor="middle" x="392" y="-62.6" font-family="Times,serif" font-size="14.00">ParameterComponent</text>
</g>
<!-- ParameterComponent&#45;&gt;MixerModule -->
<g id="edge13" class="edge">
<title>ParameterComponent&#45;&gt;MixerModule</title>
<path fill="none" stroke="black" d="M392,-84.83C392,-105.57 392,-136.8 392,-136.8 392,-136.8 1079.18,-136.8 1079.18,-136.8"/>
<polygon fill="black" stroke="black" points="1079.18,-140.3 1089.18,-136.8 1079.18,-133.3 1079.18,-140.3"/>
</g>
<!-- SnackbarComponent -->
<g id="node14" class="node">
<title>SnackbarComponent</title>
<polygon fill="#ffffb3" stroke="black" points="304.92,-84.8 171.08,-84.8 171.08,-48.8 304.92,-48.8 304.92,-84.8"/>
<text text-anchor="middle" x="238" y="-62.6" font-family="Times,serif" font-size="14.00">SnackbarComponent</text>
</g>
<!-- SnackbarComponent&#45;&gt;MixerModule -->
<g id="edge14" class="edge">
<title>SnackbarComponent&#45;&gt;MixerModule</title>
<path fill="none" stroke="black" d="M238,-85.09C238,-107.01 238,-140.8 238,-140.8 238,-140.8 1078.98,-140.8 1078.98,-140.8"/>
<polygon fill="black" stroke="black" points="1078.98,-144.3 1088.98,-140.8 1078.98,-137.3 1078.98,-144.3"/>
</g>
<!-- SubdraftComponent -->
<g id="node15" class="node">
<title>SubdraftComponent</title>
<polygon fill="#ffffb3" stroke="black" points="153.55,-84.8 24.45,-84.8 24.45,-48.8 153.55,-48.8 153.55,-84.8"/>
<text text-anchor="middle" x="89" y="-62.6" font-family="Times,serif" font-size="14.00">SubdraftComponent</text>
</g>
<!-- SubdraftComponent&#45;&gt;MixerModule -->
<g id="edge15" class="edge">
<title>SubdraftComponent&#45;&gt;MixerModule</title>
<path fill="none" stroke="black" d="M89,-85.12C89,-108.46 89,-145.8 89,-145.8 89,-145.8 1078.98,-145.8 1078.98,-145.8"/>
<polygon fill="black" stroke="black" points="1078.98,-149.3 1088.98,-145.8 1078.98,-142.3 1078.98,-149.3"/>
</g>
<!-- PlayerModule -->
<g id="node17" class="node">
<title>PlayerModule</title>
<polygon fill="#8dd3c7" stroke="black" points="2267.82,-84.8 2264.82,-88.8 2243.82,-88.8 2240.82,-84.8 2172.18,-84.8 2172.18,-48.8 2267.82,-48.8 2267.82,-84.8"/>
<text text-anchor="middle" x="2220" y="-62.6" font-family="Times,serif" font-size="14.00">PlayerModule</text>
</g>
<!-- PlayerModule&#45;&gt;MixerModule -->
<g id="edge16" class="edge">
<title>PlayerModule&#45;&gt;MixerModule</title>
<path fill="none" stroke="black" d="M2220,-85.12C2220,-108.46 2220,-145.8 2220,-145.8 2220,-145.8 1192.93,-145.8 1192.93,-145.8"/>
<polygon fill="black" stroke="black" points="1192.93,-142.3 1182.93,-145.8 1192.93,-149.3 1192.93,-142.3"/>
</g>
</g>
</svg>
