<?xml version="1.0" encoding="utf-8"?>
<!-- Generator: Adobe Illustrator 27.3.1, SVG Export Plug-In . SVG Version: 6.00 Build 0)  -->
<svg version="1.1" id="Layer_1" xmlns="http://www.w3.org/2000/svg" xmlns:xlink="http://www.w3.org/1999/xlink" x="0px" y="0px"
	 viewBox="0 0 500 500" style="enable-background:new 0 0 500 500;" xml:space="preserve">
<style type="text/css">
	.st0{fill:#FFFFFF;}
	.st1{display:none;fill:#FFFFFF;stroke:#FFFFFF;stroke-width:7;stroke-miterlimit:10;}
	.st2{clip-path:url(#SVGID_00000066478757567913258800000003741894233284604544_);fill:#FFFFFF;}
	.st3{display:none;fill:#FFFFFF;}
	.st4{display:none;fill:#FFFFFF;stroke:#FFFFFF;stroke-width:2;stroke-miterlimit:10;}
</style>
<symbol  id="New_Symbol" viewBox="-69.6 -69.6 139.2 139.2">
	<path class="st0" d="M-69.6,69.6V-69.6H69.6V69.6H-69.6z M46.9-47h-94v94h94V-47z"/>
</symbol>
<image style="overflow:visible;enable-background:new    ;" width="474" height="472" xlink:href="CA5A527B.png"  transform="matrix(1 0 0 1 13 14)">
</image>
<image style="display:none;overflow:visible;enable-background:new    ;" width="301" height="301" xlink:href="CA5A5279.png"  transform="matrix(1 0 0 1 99 99)">
</image>
<path class="st1" d="M321.8,191.2c0.1-8.4,1.1-14.5,2.9-18.3s5.2-8,10.2-12.5c4.9-4.4,8.6-8.5,11.2-12.3s3.9-7.8,3.9-12.1
	c0-5.2-1.7-9.6-5.2-13.1s-8.4-5.2-14.6-5.2c-6,0-10.7,1.7-13.9,5.1c-3.3,3.4-5.6,7-7.1,10.7l-14.6-6.4c2.6-6.9,6.9-12.7,13-17.5
	s13.7-7.2,22.7-7.2c11.6,0,20.6,3.2,26.8,9.7c6.3,6.4,9.4,14.2,9.4,23.3c0,5.6-1.2,10.6-3.6,15.2c-2.4,4.5-6.2,9.3-11.4,14.3
	c-5.7,5.5-9.1,9.6-10.3,12.5c-1.2,2.9-1.8,7.6-1.9,13.9L321.8,191.2L321.8,191.2z M330.2,234.8c-3.4,0-6.2-1.2-8.6-3.6
	c-2.4-2.4-3.6-5.3-3.6-8.6c0-3.4,1.2-6.2,3.6-8.6c2.4-2.4,5.3-3.6,8.6-3.6s6.2,1.2,8.6,3.6c2.4,2.4,3.6,5.3,3.6,8.6
	c0,3.4-1.2,6.2-3.6,8.6C336.4,233.6,333.5,234.8,330.2,234.8z"/>
<g>
	<defs>
		<rect id="SVGID_1_" x="99" y="99.1" width="139.1" height="139.1"/>
	</defs>
	<clipPath id="SVGID_00000054961320142293370370000005013498084837543857_">
		<use xlink:href="#SVGID_1_"  style="overflow:visible;"/>
	</clipPath>
	<g style="clip-path:url(#SVGID_00000054961320142293370370000005013498084837543857_);">
		
			<use xlink:href="#New_Symbol"  width="139.2" height="139.2" x="-69.6" y="-69.6" transform="matrix(1 0 0 -1 168.5745 168.5745)" style="overflow:visible;"/>
	</g>
	<polygon style="clip-path:url(#SVGID_00000054961320142293370370000005013498084837543857_);fill:#FFFFFF;" points="98.9,238.2 
		238,99.1 238,238.3 98.9,238.2 	"/>
</g>
<path class="st3" d="M260.9,99v139.1H400V99H260.9z M374,212.1h-87.1V125H374V212.1z"/>
<path class="st1" d="M145.9,321.8c8.4,0.1,14.5,1.1,18.3,2.9s8,5.2,12.5,10.2c4.4,4.9,8.5,8.6,12.3,11.2s7.8,3.9,12.1,3.9
	c5.2,0,9.6-1.7,13.1-5.2s5.2-8.4,5.2-14.6c0-6-1.7-10.7-5.1-13.9c-3.4-3.3-7-5.6-10.7-7.1l6.4-14.6c6.9,2.6,12.7,6.9,17.5,13
	s7.2,13.7,7.2,22.7c0,11.6-3.2,20.6-9.7,26.8c-6.4,6.3-14.2,9.4-23.3,9.4c-5.6,0-10.6-1.2-15.2-3.6c-4.5-2.4-9.3-6.2-14.3-11.4
	c-5.5-5.7-9.6-9.1-12.5-10.3c-2.9-1.2-7.6-1.8-13.9-1.9L145.9,321.8L145.9,321.8z M102.4,330.2c0-3.4,1.2-6.2,3.6-8.6
	s5.3-3.6,8.6-3.6s6.2,1.2,8.6,3.6s3.6,5.3,3.6,8.6s-1.2,6.2-3.6,8.6s-5.3,3.6-8.6,3.6s-6.2-1.2-8.6-3.6
	C103.5,336.4,102.4,333.5,102.4,330.2z"/>
<path class="st4" d="M172.1,321.2c0,2.6,0.3,4.5,0.8,5.7s1.9,2.9,4.2,5.1c2.1,2,3.7,4,4.6,5.8s1.5,3.9,1.5,6.2
	c0,3.7-1.3,6.8-3.8,9.4s-6.2,3.9-10.9,3.9c-3.7,0-6.8-1-9.2-2.9c-2.5-2-4.2-4.3-5.3-7.1l5.9-2.6c0.6,1.5,1.6,3,2.9,4.4
	c1.3,1.4,3.2,2.1,5.7,2.1s4.5-0.7,5.9-2.1s2.1-3.2,2.1-5.3c0-1.7-0.5-3.4-1.6-4.9s-2.6-3.2-4.6-5s-3.4-3.5-4.1-5.1s-1.1-4-1.2-7.4
	h7.1V321.2z M172,305c1,1,1.5,2.1,1.5,3.5S173,311,172,312s-2.1,1.5-3.5,1.5S166,313,165,312s-1.5-2.1-1.5-3.5s0.5-2.5,1.5-3.5
	s2.1-1.5,3.5-1.5S171,304,172,305z"/>
<g>
	<defs>
		<rect id="SVGID_00000176747859604090572690000000675802557579576492_" x="260.6" y="260.9" width="139.1" height="139.1"/>
	</defs>
	<clipPath id="SVGID_00000015336358217528602270000006136014008174001036_">
		<use xlink:href="#SVGID_00000176747859604090572690000000675802557579576492_"  style="overflow:visible;"/>
	</clipPath>
	<g style="clip-path:url(#SVGID_00000015336358217528602270000006136014008174001036_);enable-background:new    ;">
		
			<use xlink:href="#New_Symbol"  width="139.2" height="139.2" x="-69.6" y="-69.6" transform="matrix(1 0 0 -1 330.1641 330.4255)" style="overflow:visible;"/>
	</g>
</g>
<g>
	<defs>
		<rect id="SVGID_00000141439315280463446630000006105674254905463454_" x="98.9" y="260.9" width="139.1" height="139.1"/>
	</defs>
	<clipPath id="SVGID_00000024718458116760330580000016918893189409408643_">
		<use xlink:href="#SVGID_00000141439315280463446630000006105674254905463454_"  style="overflow:visible;"/>
	</clipPath>
	<g style="clip-path:url(#SVGID_00000024718458116760330580000016918893189409408643_);enable-background:new    ;">
		
			<use xlink:href="#New_Symbol"  width="139.2" height="139.2" x="-69.6" y="-69.6" transform="matrix(1 0 0 -1 168.4683 330.4255)" style="overflow:visible;"/>
	</g>
</g>
<g>
	<defs>
		<rect id="SVGID_00000049184201876016985710000008522100018423849377_" x="260.6" y="99.1" width="139.1" height="139.1"/>
	</defs>
	<clipPath id="SVGID_00000056395043634335295670000008684362481998358419_">
		<use xlink:href="#SVGID_00000049184201876016985710000008522100018423849377_"  style="overflow:visible;"/>
	</clipPath>
	<g style="clip-path:url(#SVGID_00000056395043634335295670000008684362481998358419_);enable-background:new    ;">
		
			<use xlink:href="#New_Symbol"  width="139.2" height="139.2" x="-69.6" y="-69.6" transform="matrix(1 0 0 -1 330.1641 168.5745)" style="overflow:visible;"/>
	</g>
</g>
<polygon class="st0" points="260.6,238.1 399.7,99 399.7,238.2 260.6,238.1 "/>
<polygon class="st0" points="260.3,399.9 399.4,260.8 399.4,400 260.3,399.9 "/>
<polygon class="st0" points="99,400 238.1,260.9 238.1,400.1 99,400 "/>
</svg>
