<?xml version="1.0" encoding="UTF-8" standalone="no"?>
<!DOCTYPE svg PUBLIC "-//W3C//DTD SVG 1.1//EN"
 "http://www.w3.org/Graphics/SVG/1.1/DTD/svg11.dtd">
<!-- Generated by graphviz version 5.0.0 (20220707.1540)
 -->
<!-- Title: dependencies Pages: 1 -->
<svg width="3016pt" height="250pt"
 viewBox="0.00 0.00 3016.00 249.80" xmlns="http://www.w3.org/2000/svg" xmlns:xlink="http://www.w3.org/1999/xlink">
<g id="graph0" class="graph" transform="scale(1 1) rotate(0) translate(4 245.8)">
<title>dependencies</title>
<polygon fill="white" stroke="transparent" points="-4,4 -4,-245.8 3012,-245.8 3012,4 -4,4"/>
<text text-anchor="middle" x="1504" y="-8.2" font-family="sans-serif" font-size="14.00">dependencies</text>
<g id="clust22" class="cluster">
<title>cluster_PlayerModule</title>
<polygon fill="none" stroke="black" stroke-dasharray="1,5" points="2172,-32.8 2172,-233.8 3000,-233.8 3000,-32.8 2172,-32.8"/>
</g>
<g id="clust23" class="cluster">
<title>cluster_PlayerModule_declarations</title>
<polygon fill="none" stroke="black" points="2180,-40.8 2180,-92.8 2992,-92.8 2992,-40.8 2180,-40.8"/>
</g>
<g id="clust30" class="cluster">
<title>cluster_PlayerModule_exports</title>
<polygon fill="none" stroke="black" points="2454,-173.8 2454,-225.8 2590,-225.8 2590,-173.8 2454,-173.8"/>
</g>
<g id="clust1" class="cluster">
<title>cluster_MixerModule</title>
<polygon fill="none" stroke="black" stroke-dasharray="1,5" points="8,-100.8 8,-225.8 2164,-225.8 2164,-100.8 8,-100.8"/>
</g>
<g id="clust2" class="cluster">
<title>cluster_MixerModule_declarations</title>
<polygon fill="none" stroke="black" points="16,-108.8 16,-160.8 2156,-160.8 2156,-108.8 16,-108.8"/>
</g>
<!-- ConnectionComponent -->
<g id="node1" class="node">
<title>ConnectionComponent</title>
<polygon fill="#ffffb3" stroke="black" points="2147.88,-152.8 2002.12,-152.8 2002.12,-116.8 2147.88,-116.8 2147.88,-152.8"/>
<text text-anchor="middle" x="2075" y="-130.6" font-family="Times,serif" font-size="14.00">ConnectionComponent</text>
</g>
<!-- MixerModule -->
<g id="node16" class="node">
<title>MixerModule</title>
<polygon fill="#8dd3c7" stroke="black" points="1182.77,-217.8 1179.77,-221.8 1158.77,-221.8 1155.77,-217.8 1089.23,-217.8 1089.23,-181.8 1182.77,-181.8 1182.77,-217.8"/>
<text text-anchor="middle" x="1136" y="-195.6" font-family="Times,serif" font-size="14.00">MixerModule</text>
</g>
<!-- ConnectionComponent&#45;&gt;MixerModule -->
<g id="edge1" class="edge">
<title>ConnectionComponent&#45;&gt;MixerModule</title>
<path fill="none" stroke="black" d="M2075,-153.09C2075,-175.01 2075,-208.8 2075,-208.8 2075,-208.8 1192.89,-208.8 1192.89,-208.8"/>
<polygon fill="black" stroke="black" points="1192.89,-205.3 1182.89,-208.8 1192.89,-212.3 1192.89,-205.3"/>
</g>
<!-- DraftdetailComponent -->
<g id="node2" class="node">
<title>DraftdetailComponent</title>
<polygon fill="#ffffb3" stroke="black" points="1983.97,-152.8 1842.03,-152.8 1842.03,-116.8 1983.97,-116.8 1983.97,-152.8"/>
<text text-anchor="middle" x="1913" y="-130.6" font-family="Times,serif" font-size="14.00">DraftdetailComponent</text>
</g>
<!-- DraftdetailComponent&#45;&gt;MixerModule -->
<g id="edge2" class="edge">
<title>DraftdetailComponent&#45;&gt;MixerModule</title>
<path fill="none" stroke="black" d="M1913,-152.83C1913,-173.57 1913,-204.8 1913,-204.8 1913,-204.8 1192.86,-204.8 1192.86,-204.8"/>
<polygon fill="black" stroke="black" points="1192.86,-201.3 1182.86,-204.8 1192.85,-208.3 1192.86,-201.3"/>
</g>
<!-- ImageComponent -->
<g id="node3" class="node">
<title>ImageComponent</title>
<polygon fill="#ffffb3" stroke="black" points="1824.31,-152.8 1707.69,-152.8 1707.69,-116.8 1824.31,-116.8 1824.31,-152.8"/>
<text text-anchor="middle" x="1766" y="-130.6" font-family="Times,serif" font-size="14.00">ImageComponent</text>
</g>
<!-- ImageComponent&#45;&gt;MixerModule -->
<g id="edge3" class="edge">
<title>ImageComponent&#45;&gt;MixerModule</title>
<path fill="none" stroke="black" d="M1766,-152.91C1766,-172.14 1766,-199.8 1766,-199.8 1766,-199.8 1192.84,-199.8 1192.84,-199.8"/>
<polygon fill="black" stroke="black" points="1192.84,-196.3 1182.84,-199.8 1192.84,-203.3 1192.84,-196.3"/>
</g>
<!-- InletComponent -->
<g id="node4" class="node">
<title>InletComponent</title>
<polygon fill="#ffffb3" stroke="black" points="1689.49,-152.8 1582.51,-152.8 1582.51,-116.8 1689.49,-116.8 1689.49,-152.8"/>
<text text-anchor="middle" x="1636" y="-130.6" font-family="Times,serif" font-size="14.00">InletComponent</text>
</g>
<!-- InletComponent&#45;&gt;MixerModule -->
<g id="edge4" class="edge">
<title>InletComponent&#45;&gt;MixerModule</title>
<path fill="none" stroke="black" d="M1636,-153.1C1636,-171.07 1636,-195.8 1636,-195.8 1636,-195.8 1193.04,-195.8 1193.04,-195.8"/>
<polygon fill="black" stroke="black" points="1193.04,-192.3 1183.04,-195.8 1193.04,-199.3 1193.04,-192.3"/>
</g>
<!-- MarqueeComponent -->
<g id="node5" class="node">
<title>MarqueeComponent</title>
<polygon fill="#ffffb3" stroke="black" points="1564.58,-152.8 1433.42,-152.8 1433.42,-116.8 1564.58,-116.8 1564.58,-152.8"/>
<text text-anchor="middle" x="1499" y="-130.6" font-family="Times,serif" font-size="14.00">MarqueeComponent</text>
</g>
<!-- MarqueeComponent&#45;&gt;MixerModule -->
<g id="edge5" class="edge">
<title>MarqueeComponent&#45;&gt;MixerModule</title>
<path fill="none" stroke="black" d="M1499,-152.83C1499,-169.2 1499,-190.8 1499,-190.8 1499,-190.8 1193.08,-190.8 1193.08,-190.8"/>
<polygon fill="black" stroke="black" points="1193.08,-187.3 1183.08,-190.8 1193.08,-194.3 1193.08,-187.3"/>
</g>
<!-- MixerComponent -->
<g id="node6" class="node">
<title>MixerComponent</title>
<polygon fill="#ffffb3" stroke="black" points="1415.55,-152.8 1300.45,-152.8 1300.45,-116.8 1415.55,-116.8 1415.55,-152.8"/>
<text text-anchor="middle" x="1358" y="-130.6" font-family="Times,serif" font-size="14.00">MixerComponent</text>
</g>
<!-- MixerComponent&#45;&gt;MixerModule -->
<g id="edge6" class="edge">
<title>MixerComponent&#45;&gt;MixerModule</title>
<path fill="none" stroke="black" d="M1358,-152.99C1358,-167.98 1358,-186.8 1358,-186.8 1358,-186.8 1192.81,-186.8 1192.81,-186.8"/>
<polygon fill="black" stroke="black" points="1192.81,-183.3 1182.81,-186.8 1192.81,-190.3 1192.81,-183.3"/>
</g>
<!-- MixerViewComponent -->
<g id="node7" class="node">
<title>MixerViewComponent</title>
<polygon fill="#ffffb3" stroke="black" points="1281.87,-152.8 1136.13,-152.8 1136.13,-116.8 1281.87,-116.8 1281.87,-152.8"/>
<text text-anchor="middle" x="1209" y="-130.6" font-family="Times,serif" font-size="14.00">MixerViewComponent</text>
</g>
<!-- MixerViewComponent&#45;&gt;MixerModule -->
<g id="edge7" class="edge">
<title>MixerViewComponent&#45;&gt;MixerModule</title>
<path fill="none" stroke="black" d="M1159.47,-152.91C1159.47,-152.91 1159.47,-171.79 1159.47,-171.79"/>
<polygon fill="black" stroke="black" points="1155.97,-171.79 1159.47,-181.79 1162.97,-171.79 1155.97,-171.79"/>
</g>
<!-- NoteComponent -->
<g id="node8" class="node">
<title>NoteComponent</title>
<polygon fill="#ffffb3" stroke="black" points="1118.05,-152.8 1009.95,-152.8 1009.95,-116.8 1118.05,-116.8 1118.05,-152.8"/>
<text text-anchor="middle" x="1064" y="-130.6" font-family="Times,serif" font-size="14.00">NoteComponent</text>
</g>
<!-- NoteComponent&#45;&gt;MixerModule -->
<g id="edge8" class="edge">
<title>NoteComponent&#45;&gt;MixerModule</title>
<path fill="none" stroke="black" d="M1103.69,-152.91C1103.69,-152.91 1103.69,-171.79 1103.69,-171.79"/>
<polygon fill="black" stroke="black" points="1100.19,-171.79 1103.69,-181.79 1107.19,-171.79 1100.19,-171.79"/>
</g>
<!-- OpHelpModal -->
<g id="node9" class="node">
<title>OpHelpModal</title>
<polygon fill="#ffffb3" stroke="black" points="991.38,-152.8 894.62,-152.8 894.62,-116.8 991.38,-116.8 991.38,-152.8"/>
<text text-anchor="middle" x="943" y="-130.6" font-family="Times,serif" font-size="14.00">OpHelpModal</text>
</g>
<!-- OpHelpModal&#45;&gt;MixerModule -->
<g id="edge9" class="edge">
<title>OpHelpModal&#45;&gt;MixerModule</title>
<path fill="none" stroke="black" d="M943,-152.99C943,-167.98 943,-186.8 943,-186.8 943,-186.8 1078.79,-186.8 1078.79,-186.8"/>
<polygon fill="black" stroke="black" points="1078.79,-190.3 1088.79,-186.8 1078.79,-183.3 1078.79,-190.3"/>
</g>
<!-- OperationComponent -->
<g id="node10" class="node">
<title>OperationComponent</title>
<polygon fill="#ffffb3" stroke="black" points="876.81,-152.8 739.19,-152.8 739.19,-116.8 876.81,-116.8 876.81,-152.8"/>
<text text-anchor="middle" x="808" y="-130.6" font-family="Times,serif" font-size="14.00">OperationComponent</text>
</g>
<!-- OperationComponent&#45;&gt;MixerModule -->
<g id="edge10" class="edge">
<title>OperationComponent&#45;&gt;MixerModule</title>
<path fill="none" stroke="black" d="M808,-152.83C808,-169.2 808,-190.8 808,-190.8 808,-190.8 1079.01,-190.8 1079.01,-190.8"/>
<polygon fill="black" stroke="black" points="1079.01,-194.3 1089.01,-190.8 1079.01,-187.3 1079.01,-194.3"/>
</g>
<!-- OpsComponent -->
<g id="node11" class="node">
<title>OpsComponent</title>
<polygon fill="#ffffb3" stroke="black" points="720.89,-152.8 617.11,-152.8 617.11,-116.8 720.89,-116.8 720.89,-152.8"/>
<text text-anchor="middle" x="669" y="-130.6" font-family="Times,serif" font-size="14.00">OpsComponent</text>
</g>
<!-- OpsComponent&#45;&gt;MixerModule -->
<g id="edge11" class="edge">
<title>OpsComponent&#45;&gt;MixerModule</title>
<path fill="none" stroke="black" d="M669,-153.1C669,-171.07 669,-195.8 669,-195.8 669,-195.8 1079.08,-195.8 1079.08,-195.8"/>
<polygon fill="black" stroke="black" points="1079.08,-199.3 1089.08,-195.8 1079.08,-192.3 1079.08,-199.3"/>
</g>
<!-- PaletteComponent -->
<g id="node12" class="node">
<title>PaletteComponent</title>
<polygon fill="#ffffb3" stroke="black" points="598.93,-152.8 479.07,-152.8 479.07,-116.8 598.93,-116.8 598.93,-152.8"/>
<text text-anchor="middle" x="539" y="-130.6" font-family="Times,serif" font-size="14.00">PaletteComponent</text>
</g>
<!-- PaletteComponent&#45;&gt;MixerModule -->
<g id="edge12" class="edge">
<title>PaletteComponent&#45;&gt;MixerModule</title>
<path fill="none" stroke="black" d="M539,-152.91C539,-172.14 539,-199.8 539,-199.8 539,-199.8 1079.15,-199.8 1079.15,-199.8"/>
<polygon fill="black" stroke="black" points="1079.15,-203.3 1089.15,-199.8 1079.15,-196.3 1079.15,-203.3"/>
</g>
<!-- ParameterComponent -->
<g id="node13" class="node">
<title>ParameterComponent</title>
<polygon fill="#ffffb3" stroke="black" points="461.08,-152.8 322.92,-152.8 322.92,-116.8 461.08,-116.8 461.08,-152.8"/>
<text text-anchor="middle" x="392" y="-130.6" font-family="Times,serif" font-size="14.00">ParameterComponent</text>
</g>
<!-- ParameterComponent&#45;&gt;MixerModule -->
<g id="edge13" class="edge">
<title>ParameterComponent&#45;&gt;MixerModule</title>
<path fill="none" stroke="black" d="M392,-152.83C392,-173.57 392,-204.8 392,-204.8 392,-204.8 1079.18,-204.8 1079.18,-204.8"/>
<polygon fill="black" stroke="black" points="1079.18,-208.3 1089.18,-204.8 1079.18,-201.3 1079.18,-208.3"/>
</g>
<!-- SnackbarComponent -->
<g id="node14" class="node">
<title>SnackbarComponent</title>
<polygon fill="#ffffb3" stroke="black" points="304.92,-152.8 171.08,-152.8 171.08,-116.8 304.92,-116.8 304.92,-152.8"/>
<text text-anchor="middle" x="238" y="-130.6" font-family="Times,serif" font-size="14.00">SnackbarComponent</text>
</g>
<!-- SnackbarComponent&#45;&gt;MixerModule -->
<g id="edge14" class="edge">
<title>SnackbarComponent&#45;&gt;MixerModule</title>
<path fill="none" stroke="black" d="M238,-153.09C238,-175.01 238,-208.8 238,-208.8 238,-208.8 1078.98,-208.8 1078.98,-208.8"/>
<polygon fill="black" stroke="black" points="1078.98,-212.3 1088.98,-208.8 1078.98,-205.3 1078.98,-212.3"/>
</g>
<!-- SubdraftComponent -->
<g id="node15" class="node">
<title>SubdraftComponent</title>
<polygon fill="#ffffb3" stroke="black" points="153.55,-152.8 24.45,-152.8 24.45,-116.8 153.55,-116.8 153.55,-152.8"/>
<text text-anchor="middle" x="89" y="-130.6" font-family="Times,serif" font-size="14.00">SubdraftComponent</text>
</g>
<!-- SubdraftComponent&#45;&gt;MixerModule -->
<g id="edge15" class="edge">
<title>SubdraftComponent&#45;&gt;MixerModule</title>
<path fill="none" stroke="black" d="M89,-153.12C89,-176.46 89,-213.8 89,-213.8 89,-213.8 1078.98,-213.8 1078.98,-213.8"/>
<polygon fill="black" stroke="black" points="1078.98,-217.3 1088.98,-213.8 1078.98,-210.3 1078.98,-217.3"/>
</g>
<!-- PlayerModule -->
<g id="node17" class="node">
<title>PlayerModule</title>
<polygon fill="#8dd3c7" stroke="black" points="2569.82,-152.8 2566.82,-156.8 2545.82,-156.8 2542.82,-152.8 2474.18,-152.8 2474.18,-116.8 2569.82,-116.8 2569.82,-152.8"/>
<text text-anchor="middle" x="2522" y="-130.6" font-family="Times,serif" font-size="14.00">PlayerModule</text>
</g>
<!-- PlayerModule&#45;&gt;MixerModule -->
<g id="edge16" class="edge">
<title>PlayerModule&#45;&gt;MixerModule</title>
<path fill="none" stroke="black" d="M2474.3,-140.8C2445.36,-140.8 2413.97,-140.8 2413.97,-140.8 2413.97,-140.8 2413.97,-213.8 2413.97,-213.8 2413.97,-213.8 1193,-213.8 1193,-213.8"/>
<polygon fill="black" stroke="black" points="1193,-210.3 1183,-213.8 1193,-217.3 1193,-210.3"/>
</g>
<!-- PlayerComponent  -->
<g id="node23" class="node">
<title>PlayerComponent </title>
<polygon fill="#fb8072" stroke="black" points="2582.1,-217.8 2461.9,-217.8 2461.9,-181.8 2582.1,-181.8 2582.1,-217.8"/>
<text text-anchor="middle" x="2522" y="-195.6" font-family="Times,serif" font-size="14.00">PlayerComponent </text>
</g>
<!-- PlayerModule&#45;&gt;PlayerComponent  -->
<g id="edge22" class="edge">
<title>PlayerModule&#45;&gt;PlayerComponent </title>
<path fill="none" stroke="black" stroke-dasharray="5,2" d="M2522,-152.91C2522,-152.91 2522,-171.79 2522,-171.79"/>
<polygon fill="black" stroke="black" points="2518.5,-171.79 2522,-181.79 2525.5,-171.79 2518.5,-171.79"/>
</g>
<!-- OpSequencerComponent -->
<g id="node18" class="node">
<title>OpSequencerComponent</title>
<polygon fill="#ffffb3" stroke="black" points="2984.25,-84.8 2827.75,-84.8 2827.75,-48.8 2984.25,-48.8 2984.25,-84.8"/>
<text text-anchor="middle" x="2906" y="-62.6" font-family="Times,serif" font-size="14.00">OpSequencerComponent</text>
</g>
<!-- OpSequencerComponent&#45;&gt;PlayerModule -->
<g id="edge17" class="edge">
<title>OpSequencerComponent&#45;&gt;PlayerModule</title>
<path fill="none" stroke="black" d="M2906,-85.09C2906,-107.01 2906,-140.8 2906,-140.8 2906,-140.8 2579.86,-140.8 2579.86,-140.8"/>
<polygon fill="black" stroke="black" points="2579.86,-137.3 2569.86,-140.8 2579.86,-144.3 2579.86,-137.3"/>
</g>
<!-- PlaybackComponent -->
<g id="node19" class="node">
<title>PlaybackComponent</title>
<polygon fill="#ffffb3" stroke="black" points="2809.15,-84.8 2676.85,-84.8 2676.85,-48.8 2809.15,-48.8 2809.15,-84.8"/>
<text text-anchor="middle" x="2743" y="-62.6" font-family="Times,serif" font-size="14.00">PlaybackComponent</text>
</g>
<!-- PlaybackComponent&#45;&gt;PlayerModule -->
<g id="edge18" class="edge">
<title>PlaybackComponent&#45;&gt;PlayerModule</title>
<path fill="none" stroke="black" d="M2743,-85.07C2743,-103.36 2743,-128.8 2743,-128.8 2743,-128.8 2579.68,-128.8 2579.68,-128.8"/>
<polygon fill="black" stroke="black" points="2579.68,-125.3 2569.68,-128.8 2579.68,-132.3 2579.68,-125.3"/>
</g>
<!-- PlayerComponent -->
<g id="node20" class="node">
<title>PlayerComponent</title>
<polygon fill="#ffffb3" stroke="black" points="2658.6,-84.8 2541.4,-84.8 2541.4,-48.8 2658.6,-48.8 2658.6,-84.8"/>
<text text-anchor="middle" x="2600" y="-62.6" font-family="Times,serif" font-size="14.00">PlayerComponent</text>
</g>
<!-- PlayerComponent&#45;&gt;PlayerModule -->
<g id="edge19" class="edge">
<title>PlayerComponent&#45;&gt;PlayerModule</title>
<path fill="none" stroke="black" d="M2555.56,-85.02C2555.56,-85.02 2555.56,-106.53 2555.56,-106.53"/>
<polygon fill="black" stroke="black" points="2552.06,-106.53 2555.56,-116.53 2559.06,-106.53 2552.06,-106.53"/>
</g>
<!-- VirtualPedalsComponent -->
<g id="node21" class="node">
<title>VirtualPedalsComponent</title>
<polygon fill="#ffffb3" stroke="black" points="2523.54,-84.8 2366.46,-84.8 2366.46,-48.8 2523.54,-48.8 2523.54,-84.8"/>
<text text-anchor="middle" x="2445" y="-62.6" font-family="Times,serif" font-size="14.00">VirtualPedalsComponent</text>
</g>
<!-- VirtualPedalsComponent&#45;&gt;PlayerModule -->
<g id="edge20" class="edge">
<title>VirtualPedalsComponent&#45;&gt;PlayerModule</title>
<path fill="none" stroke="black" d="M2499.06,-85.02C2499.06,-85.02 2499.06,-106.53 2499.06,-106.53"/>
<polygon fill="black" stroke="black" points="2495.56,-106.53 2499.06,-116.53 2502.56,-106.53 2495.56,-106.53"/>
</g>
<!-- WeavingStateComponent -->
<g id="node22" class="node">
<title>WeavingStateComponent</title>
<polygon fill="#ffffb3" stroke="black" points="2347.86,-84.8 2188.14,-84.8 2188.14,-48.8 2347.86,-48.8 2347.86,-84.8"/>
<text text-anchor="middle" x="2268" y="-62.6" font-family="Times,serif" font-size="14.00">WeavingStateComponent</text>
</g>
<!-- WeavingStateComponent&#45;&gt;PlayerModule -->
<g id="edge21" class="edge">
<title>WeavingStateComponent&#45;&gt;PlayerModule</title>
<path fill="none" stroke="black" d="M2268,-85.07C2268,-103.36 2268,-128.8 2268,-128.8 2268,-128.8 2464.22,-128.8 2464.22,-128.8"/>
<polygon fill="black" stroke="black" points="2464.22,-132.3 2474.22,-128.8 2464.22,-125.3 2464.22,-132.3"/>
</g>
</g>
</svg>
