<?xml version="1.0" encoding="UTF-8" standalone="no"?>
<!DOCTYPE svg PUBLIC "-//W3C//DTD SVG 1.1//EN"
 "http://www.w3.org/Graphics/SVG/1.1/DTD/svg11.dtd">
<!-- Generated by graphviz version 5.0.0 (20220707.1540)
 -->
<!-- Title: dependencies Pages: 1 -->
<svg width="2156pt" height="247pt"
 viewBox="0.00 0.00 2156.00 246.80" xmlns="http://www.w3.org/2000/svg" xmlns:xlink="http://www.w3.org/1999/xlink">
<g id="graph0" class="graph" transform="scale(1 1) rotate(0) translate(4 242.8)">
<title>dependencies</title>
<polygon fill="white" stroke="transparent" points="-4,4 -4,-242.8 2152,-242.8 2152,4 -4,4"/>
<text text-anchor="middle" x="1074" y="-8.2" font-family="sans-serif" font-size="14.00">dependencies</text>
<g id="clust1" class="cluster">
<title>cluster_PlayerModule</title>
<polygon fill="none" stroke="black" stroke-dasharray="1,5" points="8,-32.8 8,-230.8 2140,-230.8 2140,-32.8 8,-32.8"/>
</g>
<g id="clust15" class="cluster">
<title>cluster_PlayerModule_exports</title>
<polygon fill="none" stroke="black" points="972,-170.8 972,-222.8 1108,-222.8 1108,-170.8 972,-170.8"/>
</g>
<g id="clust17" class="cluster">
<title>cluster_PlayerModule_providers</title>
<polygon fill="none" stroke="black" points="1780,-40.8 1780,-92.8 2132,-92.8 2132,-40.8 1780,-40.8"/>
</g>
<g id="clust2" class="cluster">
<title>cluster_PlayerModule_declarations</title>
<polygon fill="none" stroke="black" points="16,-40.8 16,-92.8 1772,-92.8 1772,-40.8 16,-40.8"/>
</g>
<!-- ChainOpMenuComponent -->
<g id="node1" class="node">
<title>ChainOpMenuComponent</title>
<polygon fill="#ffffb3" stroke="black" points="1764.05,-84.8 1599.95,-84.8 1599.95,-48.8 1764.05,-48.8 1764.05,-84.8"/>
<text text-anchor="middle" x="1682" y="-62.6" font-family="Times,serif" font-size="14.00">ChainOpMenuComponent</text>
</g>
<!-- PlayerModule -->
<g id="node12" class="node">
<title>PlayerModule</title>
<polygon fill="#8dd3c7" stroke="black" points="1087.82,-149.8 1084.82,-153.8 1063.82,-153.8 1060.82,-149.8 992.18,-149.8 992.18,-113.8 1087.82,-113.8 1087.82,-149.8"/>
<text text-anchor="middle" x="1040" y="-127.6" font-family="Times,serif" font-size="14.00">PlayerModule</text>
</g>
<!-- ChainOpMenuComponent&#45;&gt;PlayerModule -->
<g id="edge1" class="edge">
<title>ChainOpMenuComponent&#45;&gt;PlayerModule</title>
<path fill="none" stroke="black" d="M1682,-85.02C1682,-105.17 1682,-134.8 1682,-134.8 1682,-134.8 1097.73,-134.8 1097.73,-134.8"/>
<polygon fill="black" stroke="black" points="1097.73,-131.3 1087.73,-134.8 1097.73,-138.3 1097.73,-131.3"/>
</g>
<!-- OpButtonComponent -->
<g id="node2" class="node">
<title>OpButtonComponent</title>
<polygon fill="#ffffb3" stroke="black" points="1581.06,-84.8 1444.94,-84.8 1444.94,-48.8 1581.06,-48.8 1581.06,-84.8"/>
<text text-anchor="middle" x="1513" y="-62.6" font-family="Times,serif" font-size="14.00">OpButtonComponent</text>
</g>
<!-- OpButtonComponent&#45;&gt;PlayerModule -->
<g id="edge2" class="edge">
<title>OpButtonComponent&#45;&gt;PlayerModule</title>
<path fill="none" stroke="black" d="M1513,-85.02C1513,-103.63 1513,-129.8 1513,-129.8 1513,-129.8 1097.96,-129.8 1097.96,-129.8"/>
<polygon fill="black" stroke="black" points="1097.96,-126.3 1087.96,-129.8 1097.96,-133.3 1097.96,-126.3"/>
</g>
<!-- OpSequencerComponent -->
<g id="node3" class="node">
<title>OpSequencerComponent</title>
<polygon fill="#ffffb3" stroke="black" points="1426.25,-84.8 1269.75,-84.8 1269.75,-48.8 1426.25,-48.8 1426.25,-84.8"/>
<text text-anchor="middle" x="1348" y="-62.6" font-family="Times,serif" font-size="14.00">OpSequencerComponent</text>
</g>
<!-- OpSequencerComponent&#45;&gt;PlayerModule -->
<g id="edge3" class="edge">
<title>OpSequencerComponent&#45;&gt;PlayerModule</title>
<path fill="none" stroke="black" d="M1348,-84.83C1348,-101.86 1348,-124.8 1348,-124.8 1348,-124.8 1097.79,-124.8 1097.79,-124.8"/>
<polygon fill="black" stroke="black" points="1097.79,-121.3 1087.79,-124.8 1097.79,-128.3 1097.79,-121.3"/>
</g>
<!-- OperationComponent -->
<g id="node4" class="node">
<title>OperationComponent</title>
<polygon fill="#ffffb3" stroke="black" points="1251.81,-84.8 1114.19,-84.8 1114.19,-48.8 1251.81,-48.8 1251.81,-84.8"/>
<text text-anchor="middle" x="1183" y="-62.6" font-family="Times,serif" font-size="14.00">OperationComponent</text>
</g>
<!-- OperationComponent&#45;&gt;PlayerModule -->
<g id="edge4" class="edge">
<title>OperationComponent&#45;&gt;PlayerModule</title>
<path fill="none" stroke="black" d="M1183,-85.04C1183,-100.37 1183,-119.8 1183,-119.8 1183,-119.8 1098.01,-119.8 1098.01,-119.8"/>
<polygon fill="black" stroke="black" points="1098.01,-116.3 1088.01,-119.8 1098.01,-123.3 1098.01,-116.3"/>
</g>
<!-- PedalComponent -->
<g id="node5" class="node">
<title>PedalComponent</title>
<polygon fill="#ffffb3" stroke="black" points="1096.44,-84.8 983.56,-84.8 983.56,-48.8 1096.44,-48.8 1096.44,-84.8"/>
<text text-anchor="middle" x="1040" y="-62.6" font-family="Times,serif" font-size="14.00">PedalComponent</text>
</g>
<!-- PedalComponent&#45;&gt;PlayerModule -->
<g id="edge5" class="edge">
<title>PedalComponent&#45;&gt;PlayerModule</title>
<path fill="none" stroke="black" d="M1040,-84.91C1040,-84.91 1040,-103.79 1040,-103.79"/>
<polygon fill="black" stroke="black" points="1036.5,-103.79 1040,-113.79 1043.5,-103.79 1036.5,-103.79"/>
</g>
<!-- PedalsComponent -->
<g id="node6" class="node">
<title>PedalsComponent</title>
<polygon fill="#ffffb3" stroke="black" points="965.88,-84.8 848.12,-84.8 848.12,-48.8 965.88,-48.8 965.88,-84.8"/>
<text text-anchor="middle" x="907" y="-62.6" font-family="Times,serif" font-size="14.00">PedalsComponent</text>
</g>
<!-- PedalsComponent&#45;&gt;PlayerModule -->
<g id="edge6" class="edge">
<title>PedalsComponent&#45;&gt;PlayerModule</title>
<path fill="none" stroke="black" d="M907,-85.04C907,-100.37 907,-119.8 907,-119.8 907,-119.8 981.98,-119.8 981.98,-119.8"/>
<polygon fill="black" stroke="black" points="981.98,-123.3 991.98,-119.8 981.98,-116.3 981.98,-123.3"/>
</g>
<!-- PlaybackComponent -->
<g id="node7" class="node">
<title>PlaybackComponent</title>
<polygon fill="#ffffb3" stroke="black" points="830.15,-84.8 697.85,-84.8 697.85,-48.8 830.15,-48.8 830.15,-84.8"/>
<text text-anchor="middle" x="764" y="-62.6" font-family="Times,serif" font-size="14.00">PlaybackComponent</text>
</g>
<!-- PlaybackComponent&#45;&gt;PlayerModule -->
<g id="edge7" class="edge">
<title>PlaybackComponent&#45;&gt;PlayerModule</title>
<path fill="none" stroke="black" d="M764,-84.83C764,-101.86 764,-124.8 764,-124.8 764,-124.8 982.24,-124.8 982.24,-124.8"/>
<polygon fill="black" stroke="black" points="982.24,-128.3 992.24,-124.8 982.24,-121.3 982.24,-128.3"/>
</g>
<!-- PlayerComponent -->
<g id="node8" class="node">
<title>PlayerComponent</title>
<polygon fill="#ffffb3" stroke="black" points="679.6,-84.8 562.4,-84.8 562.4,-48.8 679.6,-48.8 679.6,-84.8"/>
<text text-anchor="middle" x="621" y="-62.6" font-family="Times,serif" font-size="14.00">PlayerComponent</text>
</g>
<!-- PlayerComponent&#45;&gt;PlayerModule -->
<g id="edge8" class="edge">
<title>PlayerComponent&#45;&gt;PlayerModule</title>
<path fill="none" stroke="black" d="M621,-85.02C621,-103.63 621,-129.8 621,-129.8 621,-129.8 981.94,-129.8 981.94,-129.8"/>
<polygon fill="black" stroke="black" points="981.94,-133.3 991.94,-129.8 981.94,-126.3 981.94,-133.3"/>
</g>
<!-- SingleOpMenuComponent -->
<g id="node9" class="node">
<title>SingleOpMenuComponent</title>
<polygon fill="#ffffb3" stroke="black" points="544.38,-84.8 377.62,-84.8 377.62,-48.8 544.38,-48.8 544.38,-84.8"/>
<text text-anchor="middle" x="461" y="-62.6" font-family="Times,serif" font-size="14.00">SingleOpMenuComponent</text>
</g>
<!-- SingleOpMenuComponent&#45;&gt;PlayerModule -->
<g id="edge9" class="edge">
<title>SingleOpMenuComponent&#45;&gt;PlayerModule</title>
<path fill="none" stroke="black" d="M461,-85.02C461,-105.17 461,-134.8 461,-134.8 461,-134.8 982.13,-134.8 982.13,-134.8"/>
<polygon fill="black" stroke="black" points="982.13,-138.3 992.13,-134.8 982.13,-131.3 982.13,-138.3"/>
</g>
<!-- VirtualPedalsComponent -->
<g id="node10" class="node">
<title>VirtualPedalsComponent</title>
<polygon fill="#ffffb3" stroke="black" points="359.54,-84.8 202.46,-84.8 202.46,-48.8 359.54,-48.8 359.54,-84.8"/>
<text text-anchor="middle" x="281" y="-62.6" font-family="Times,serif" font-size="14.00">VirtualPedalsComponent</text>
</g>
<!-- VirtualPedalsComponent&#45;&gt;PlayerModule -->
<g id="edge10" class="edge">
<title>VirtualPedalsComponent&#45;&gt;PlayerModule</title>
<path fill="none" stroke="black" d="M281,-84.84C281,-106.46 281,-139.8 281,-139.8 281,-139.8 982.23,-139.8 982.23,-139.8"/>
<polygon fill="black" stroke="black" points="982.23,-143.3 992.23,-139.8 982.23,-136.3 982.23,-143.3"/>
</g>
<!-- WeavingStateComponent -->
<g id="node11" class="node">
<title>WeavingStateComponent</title>
<polygon fill="#ffffb3" stroke="black" points="183.86,-84.8 24.14,-84.8 24.14,-48.8 183.86,-48.8 183.86,-84.8"/>
<text text-anchor="middle" x="104" y="-62.6" font-family="Times,serif" font-size="14.00">WeavingStateComponent</text>
</g>
<!-- WeavingStateComponent&#45;&gt;PlayerModule -->
<g id="edge11" class="edge">
<title>WeavingStateComponent&#45;&gt;PlayerModule</title>
<path fill="none" stroke="black" d="M104,-84.89C104,-107.93 104,-144.8 104,-144.8 104,-144.8 982.3,-144.8 982.3,-144.8"/>
<polygon fill="black" stroke="black" points="982.3,-148.3 992.3,-144.8 982.3,-141.3 982.3,-148.3"/>
</g>
<!-- PlayerComponent  -->
<g id="node13" class="node">
<title>PlayerComponent </title>
<polygon fill="#fb8072" stroke="black" points="1100.1,-214.8 979.9,-214.8 979.9,-178.8 1100.1,-178.8 1100.1,-214.8"/>
<text text-anchor="middle" x="1040" y="-192.6" font-family="Times,serif" font-size="14.00">PlayerComponent </text>
</g>
<!-- PlayerModule&#45;&gt;PlayerComponent  -->
<g id="edge12" class="edge">
<title>PlayerModule&#45;&gt;PlayerComponent </title>
<path fill="none" stroke="black" stroke-dasharray="5,2" d="M1040,-149.91C1040,-149.91 1040,-168.79 1040,-168.79"/>
<polygon fill="black" stroke="black" points="1036.5,-168.79 1040,-178.79 1043.5,-168.79 1036.5,-168.79"/>
</g>
<!-- MappingsService -->
<g id="node14" class="node">
<title>MappingsService</title>
<ellipse fill="#fdb462" stroke="black" cx="2045" cy="-66.8" rx="78.74" ry="18"/>
<text text-anchor="middle" x="2045" y="-62.6" font-family="Times,serif" font-size="14.00">MappingsService</text>
</g>
<!-- MappingsService&#45;&gt;PlayerModule -->
<g id="edge13" class="edge">
<title>MappingsService&#45;&gt;PlayerModule</title>
<path fill="none" stroke="black" d="M2045,-84.89C2045,-107.93 2045,-144.8 2045,-144.8 2045,-144.8 1097.8,-144.8 1097.8,-144.8"/>
<polygon fill="black" stroke="black" points="1097.8,-141.3 1087.8,-144.8 1097.8,-148.3 1097.8,-141.3"/>
</g>
<!-- SequencerService -->
<g id="node15" class="node">
<title>SequencerService</title>
<ellipse fill="#fdb462" stroke="black" cx="1868" cy="-66.8" rx="80.42" ry="18"/>
<text text-anchor="middle" x="1868" y="-62.6" font-family="Times,serif" font-size="14.00">SequencerService</text>
</g>
<!-- SequencerService&#45;&gt;PlayerModule -->
<g id="edge14" class="edge">
<title>SequencerService&#45;&gt;PlayerModule</title>
<path fill="none" stroke="black" d="M1868,-84.84C1868,-106.46 1868,-139.8 1868,-139.8 1868,-139.8 1097.79,-139.8 1097.79,-139.8"/>
<polygon fill="black" stroke="black" points="1097.79,-136.3 1087.79,-139.8 1097.79,-143.3 1097.79,-136.3"/>
</g>
</g>
</svg>
